<?xml version="1.0" encoding="utf-8"?>
<!-- Generator: Adobe Illustrator 26.0.0, SVG Export Plug-In . SVG Version: 6.00 Build 0)  -->
<!DOCTYPE svg PUBLIC "-//W3C//DTD SVG 1.1//EN" "http://www.w3.org/Graphics/SVG/1.1/DTD/svg11.dtd" [
	<!ENTITY ns_extend "http://ns.adobe.com/Extensibility/1.0/">
	<!ENTITY ns_ai "http://ns.adobe.com/AdobeIllustrator/10.0/">
	<!ENTITY ns_graphs "http://ns.adobe.com/Graphs/1.0/">
	<!ENTITY ns_vars "http://ns.adobe.com/Variables/1.0/">
	<!ENTITY ns_imrep "http://ns.adobe.com/ImageReplacement/1.0/">
	<!ENTITY ns_sfw "http://ns.adobe.com/SaveForWeb/1.0/">
	<!ENTITY ns_custom "http://ns.adobe.com/GenericCustomNamespace/1.0/">
	<!ENTITY ns_adobe_xpath "http://ns.adobe.com/XPath/1.0/">
]>
<svg version="1.1" id="Capa_1" xmlns:x="&ns_extend;" xmlns:i="&ns_ai;" xmlns:graph="&ns_graphs;"
	 xmlns="http://www.w3.org/2000/svg" xmlns:xlink="http://www.w3.org/1999/xlink" x="0px" y="0px" viewBox="0 0 373 111"
	 style="enable-background:new 0 0 373 111;" xml:space="preserve">
<style type="text/css">
	.st0{fill:#FFFFFF;}
</style>
<metadata>
	<sfw  xmlns="&ns_sfw;">
		<slices></slices>
		<sliceSourceBounds  bottomLeftOrigin="true" height="77.3" width="346.3" x="12.9" y="17.4"></sliceSourceBounds>
	</sfw>
</metadata>
<path class="st0" d="M53.2,93.6h-0.4c-2.1,0.1-4.1-1.2-4.5-3.3c-0.1-0.7-0.1-1.5-0.1-2.3V64.9c0-1.3,0.2-0.9-1-1.4
	c-6.6-2.6-10.8-8-11.3-15.1c-0.1-1,0-2,0-3V42c0-0.3,0.1-0.6,0.1-0.9l0.2-3.2l0.7-5c1-6.3,2.7-11.8,9-15c1.8-0.9,3.8-1.4,5.8-1.5
	c5.1-0.5,10.8,2.9,13.4,7.2c1.4,2.3,2.1,5,2.6,7.7l0.9,6.2l0.3,7.7c0,1.9,0,3.8-0.4,5.7c-1.2,5.8-5.5,11.6-11.6,12.9
	c-0.4,0.1-0.3,0.2-0.3,0.7v23.4c0,0.8,0.1,1.6,0,2.4C56.5,91.9,54.9,93.3,53.2,93.6z M52,25.5c-4.3,0.5-4.8,3.8-5.5,7.2
	c-0.9,4.7-1.4,8.4-1.4,13.1c0,1-0.1,2.1,0.1,3.1c0.6,4,3.7,6.8,7.8,6.7c3.7-0.5,6.2-3.1,6.8-6.6c0.1-0.8,0.1-1.7,0.1-2.6l-0.1-4
	c0-0.7-0.1-1.4-0.1-2l-1.3-7.9C57.6,28.7,56.5,25.3,52,25.5z"/>
<path class="st0" d="M34.8,59.5h0.5c1.4,2.7,5,5.7,7.8,7.3c-0.6,0.3-1.3,0.5-2,0.7c-14,4.6-27.5-5-28.2-19.5V18.1h3.2
	c0.6,0,2.4-0.2,2.8,0.1l11.5,8.3c0.9,0.6,1.8,1.2,2.5,1.9c-0.2,0.7-0.3,1.5-0.4,2.2l-0.7,5.5c-0.1,0.9-0.1,2-0.2,2.9
	c-0.4-0.2-0.7-0.5-1-0.7l-6.4-4.8c-0.5-0.3-1.4-0.9-1.8-1.3l-0.1,13.6c0,0.7,0,1.5,0,2.2c0.5,5.8,4.3,10.7,10.4,11.4
	C33.4,59.5,34.1,59.5,34.8,59.5z"/>
<path class="st0" d="M68.6,61l1.2-1.5l2.1,0.1c5.1-0.2,9.2-4.2,10.3-8.9c0.4-1.8,0.4-3.7,0.4-5.5v-13c-0.1,0.2-1,0.7-1.2,0.9
	l-6.1,4.5c-0.6,0.4-1.3,0.9-1.8,1.5l-1.6-10.6l8.7-6.2c0.6-0.5,5.3-4,5.7-4.1h0.1c0.7-0.1,1.5,0,2.2,0H92v29.9
	c-0.2,4-1.3,8.1-3.6,11.5c-5.4,8.2-15.5,11.1-24.9,8c-0.5-0.2-0.9-0.3-1.4-0.5H62c0-0.1,0.2-0.2,0.3-0.3l1.9-1.4
	C65.9,64,67.3,62.5,68.6,61z"/>
<path class="st0" d="M112.2,69.1c-2,0-3.7-0.4-5-1.3c-1.3-0.8-2.3-2-3-3.5s-1.1-3.2-1.2-5.2l4.3-1.1c0.1,1.2,0.3,2.4,0.6,3.5
	c0.3,1.1,0.8,2,1.5,2.8c0.7,0.7,1.6,1.1,2.9,1.1s2.2-0.3,2.9-1c0.6-0.7,1-1.7,1-3c0-1.5-0.4-2.8-1.1-3.7s-1.6-1.9-2.7-2.8l-5.8-5
	c-1.1-1-2-2.1-2.5-3.2c-0.5-1.2-0.8-2.6-0.8-4.3c0-2.5,0.7-4.4,2.2-5.8c1.5-1.4,3.4-2.1,6-2.1c1.4,0,2.6,0.2,3.6,0.5
	c1,0.4,1.9,0.9,2.6,1.6c0.7,0.7,1.3,1.6,1.7,2.8s0.7,2.4,0.8,3.9l-4.1,1.1c-0.1-1.1-0.3-2.1-0.5-3.1c-0.3-0.9-0.7-1.7-1.4-2.3
	c-0.6-0.6-1.6-0.9-2.8-0.9c-1.2,0-2.1,0.3-2.8,0.9c-0.7,0.6-1,1.6-1,2.8c0,1,0.2,1.9,0.5,2.6c0.4,0.7,0.9,1.4,1.7,2.1l5.9,5
	c1.3,1.1,2.5,2.5,3.5,4c1,1.6,1.5,3.4,1.5,5.5c0,1.7-0.4,3.1-1.1,4.3c-0.7,1.2-1.7,2.1-2.9,2.8C115.3,68.7,113.9,69.1,112.2,69.1z
	 M127.7,69c-1,0-1.8-0.3-2.6-0.8c-0.7-0.5-1.3-1.2-1.8-2.1c-0.4-0.9-0.6-1.8-0.6-2.7c0-1.5,0.3-2.8,0.8-3.8s1.2-1.9,2.1-2.6
	c0.9-0.7,1.9-1.3,3.1-1.9c1.2-0.5,2.4-1,3.8-1.6v-1.7c0-1-0.1-1.8-0.2-2.4c-0.1-0.6-0.4-1.1-0.7-1.4c-0.4-0.3-0.9-0.5-1.6-0.5
	c-0.6,0-1.1,0.1-1.5,0.4c-0.4,0.3-0.7,0.7-0.8,1.2c-0.2,0.5-0.3,1.1-0.3,1.8v1.2l-4.5-0.2c0.1-2.7,0.7-4.7,1.9-5.9
	c1.2-1.3,3.1-1.9,5.6-1.9s4.2,0.7,5.2,2s1.5,3.2,1.5,5.7v11.1c0,0.8,0,1.5,0.1,2.2c0,0.7,0.1,1.4,0.2,2c0.1,0.6,0.1,1.2,0.2,1.7
	h-4.2c-0.1-0.4-0.2-1-0.3-1.7s-0.2-1.3-0.3-1.9c-0.3,1-0.8,1.8-1.7,2.7C130.2,68.6,129.1,69,127.7,69z M129.5,65.1
	c0.5,0,0.9-0.1,1.3-0.4c0.4-0.3,0.8-0.5,1.1-0.9c0.3-0.3,0.5-0.6,0.6-0.8v-6.9c-0.7,0.4-1.4,0.8-2,1.2s-1.2,0.8-1.7,1.2
	s-0.8,0.9-1.1,1.5c-0.3,0.5-0.4,1.2-0.4,1.9c0,1,0.2,1.7,0.6,2.3C128.2,64.9,128.8,65.1,129.5,65.1z M150.4,69
	c-0.9,0-1.7-0.2-2.4-0.7c-0.7-0.4-1.3-0.9-1.8-1.4v1.8h-4.6v-34h4.6v11.7c0.5-0.6,1.2-1.1,2-1.6c0.8-0.4,1.7-0.7,2.7-0.7
	c1.3,0,2.3,0.3,3.1,1s1.3,1.5,1.7,2.5s0.6,2,0.7,3c0.1,1,0.2,1.9,0.2,2.6v5.9c0,1.7-0.2,3.3-0.5,4.8c-0.3,1.5-1,2.8-1.8,3.7
	C153.2,68.5,152,69,150.4,69z M149.4,65.5c0.8,0,1.4-0.3,1.7-0.9s0.6-1.4,0.6-2.3c0.1-1,0.1-2.1,0.1-3.2v-5.9c0-1-0.1-1.9-0.2-2.8
	c-0.1-0.9-0.4-1.5-0.7-2c-0.4-0.5-1-0.8-1.8-0.8c-0.6,0-1.2,0.1-1.7,0.4c-0.5,0.3-1,0.5-1.4,0.8v15.6c0.4,0.3,0.9,0.6,1.4,0.8
	C148.2,65.4,148.8,65.5,149.4,65.5z M167.5,69c-1.8,0-3.3-0.4-4.3-1.1c-1.1-0.7-1.8-1.8-2.3-3.1c-0.4-1.3-0.7-2.9-0.7-4.7V53
	c0-1.8,0.2-3.4,0.7-4.7c0.4-1.3,1.2-2.4,2.3-3.1c1.1-0.7,2.5-1.1,4.3-1.1s3.3,0.4,4.3,1.1c1,0.7,1.8,1.8,2.2,3.1s0.7,2.9,0.7,4.7
	v7.1c0,1.8-0.2,3.4-0.7,4.7c-0.4,1.3-1.2,2.4-2.2,3.1C170.7,68.6,169.3,69,167.5,69z M167.5,65.7c0.9,0,1.5-0.3,1.9-0.8
	s0.6-1.2,0.6-2c0.1-0.8,0.1-1.7,0.1-2.6v-7.6c0-0.9,0-1.8-0.1-2.6s-0.3-1.5-0.6-2c-0.4-0.5-1-0.8-1.9-0.8s-1.5,0.3-1.9,0.8
	s-0.6,1.2-0.7,2c-0.1,0.8-0.1,1.7-0.1,2.6v7.6c0,0.9,0,1.8,0.1,2.6s0.3,1.5,0.7,2C166,65.4,166.6,65.7,167.5,65.7z M179,68.7V44.4
	h4.6v3.4c0.9-1.5,1.8-2.5,2.7-3s1.8-0.8,2.7-0.8c0.1,0,0.2,0,0.3,0s0.2,0,0.4,0v5c-0.3-0.1-0.7-0.3-1.2-0.4
	c-0.4-0.1-0.9-0.1-1.4-0.1c-0.7,0-1.4,0.2-2,0.5s-1.2,0.9-1.7,1.9v17.7L179,68.7L179,68.7z M200.5,69.1c-1.9,0-3.5-0.4-4.7-1
	c-1.3-0.7-2.2-1.7-2.8-3c-0.6-1.3-0.9-2.9-0.9-4.7v-1.1h4.5c0,0.1,0,0.2,0,0.4c0,0.1,0,0.3,0,0.4c0,1,0.1,1.9,0.4,2.7
	c0.2,0.8,0.6,1.5,1.2,1.9c0.6,0.5,1.4,0.7,2.4,0.7c1.1,0,2-0.3,2.5-0.8c0.6-0.5,1-1.3,1.2-2.2c0.2-1,0.3-2,0.3-3.3
	c0-1.8-0.3-3.3-1-4.4c-0.7-1.1-1.9-1.8-3.5-1.9c-0.1,0-0.2,0-0.3,0s-0.2,0-0.3,0v-4.5c0.1,0,0.2,0,0.3,0s0.2,0,0.3,0
	c1.6-0.1,2.8-0.5,3.5-1.3s1.1-2.1,1.1-3.9c0-1.5-0.3-2.8-0.8-3.7s-1.6-1.4-3.2-1.4s-2.6,0.5-3.1,1.5s-0.8,2.3-0.9,3.9
	c0,0.1,0,0.2,0,0.4s0,0.2,0,0.4H192v-1.1c0-1.8,0.3-3.4,0.9-4.7c0.6-1.3,1.6-2.3,2.9-3c1.3-0.7,2.9-1,4.7-1c1.9,0,3.5,0.3,4.8,1
	s2.2,1.7,2.8,3s0.9,2.9,0.9,4.7c0,2-0.5,3.7-1.4,4.9s-2.1,2.1-3.6,2.5c1.1,0.3,2,0.8,2.7,1.6s1.3,1.7,1.7,2.9s0.6,2.5,0.6,4.1
	c0,2-0.3,3.8-0.9,5.3c-0.6,1.5-1.5,2.7-2.7,3.5C204.2,68.6,202.6,69.1,200.5,69.1z M223.3,68.7v-34h7c2.3,0,4.2,0.3,5.7,0.9
	c1.5,0.6,2.6,1.6,3.4,2.9c0.7,1.3,1.1,3.1,1.1,5.2c0,1.3-0.1,2.5-0.4,3.6c-0.3,1.1-0.7,2-1.4,2.7c-0.6,0.7-1.5,1.3-2.5,1.6l4.9,17
	h-4.7l-4.5-16h-3.8v16L223.3,68.7L223.3,68.7z M228.1,49.3h1.8c1.4,0,2.5-0.2,3.3-0.5c0.9-0.3,1.5-0.9,1.9-1.7s0.6-1.9,0.6-3.4
	c0-2-0.4-3.4-1.1-4.3c-0.7-0.9-2.2-1.3-4.4-1.3h-2.1V49.3z M251.6,69c-1.9,0-3.4-0.4-4.5-1.1s-1.8-1.8-2.2-3.3
	c-0.4-1.4-0.6-3.2-0.6-5.3v-5.5c0-2.2,0.2-3.9,0.6-5.4c0.4-1.4,1.2-2.5,2.3-3.2s2.6-1.1,4.4-1.1c2.1,0,3.6,0.4,4.6,1.3
	c1,0.8,1.6,2.1,2,3.6c0.3,1.6,0.5,3.5,0.5,5.7v2h-9.8v4.9c0,1,0.1,1.8,0.3,2.4c0.2,0.6,0.5,1.1,0.9,1.4s1,0.4,1.6,0.4
	c0.7,0,1.2-0.2,1.6-0.5c0.4-0.3,0.6-0.8,0.7-1.4c0.1-0.6,0.2-1.3,0.2-2.1v-1.5h4.5v0.9c0,2.4-0.5,4.4-1.6,5.8
	C256,68.3,254.2,69,251.6,69z M248.9,54.2h5.3V52c0-1-0.1-1.9-0.2-2.5c-0.1-0.7-0.4-1.2-0.7-1.6c-0.4-0.3-0.9-0.5-1.7-0.5
	c-0.7,0-1.3,0.2-1.7,0.5s-0.7,0.9-0.8,1.7s-0.2,1.9-0.2,3.3L248.9,54.2L248.9,54.2z M269.4,76.3c-1.5,0-2.9-0.2-4.1-0.5
	s-2.2-0.8-2.9-1.5c-0.7-0.7-1.1-1.6-1.1-2.6c0-0.8,0.2-1.6,0.6-2.2s0.9-1.2,1.5-1.6s1.3-0.8,2-1l2.1,0.3c-0.4,0.3-0.7,0.7-1.1,1
	c-0.3,0.3-0.6,0.7-0.9,1.1c-0.2,0.4-0.3,0.8-0.3,1.2c0,0.7,0.3,1.3,1,1.6c0.6,0.4,1.8,0.5,3.5,0.5c1.6,0,2.8-0.2,3.6-0.6
	c0.8-0.4,1.2-1,1.2-1.8c0-0.5-0.1-0.9-0.3-1.2c-0.2-0.3-0.5-0.6-1-0.8c-0.5-0.2-1.2-0.3-2.1-0.4l-5.4-0.7c-1.1-0.1-1.9-0.5-2.5-1
	c-0.5-0.6-0.8-1.2-0.8-1.8c0-1,0.3-1.9,0.9-2.6c0.6-0.7,1.4-1.5,2.4-2.4l1.5,1.2c-0.2,0.2-0.4,0.5-0.6,0.9c-0.3,0.4-0.4,0.8-0.4,1.2
	c0,0.3,0.2,0.6,0.5,0.8s0.9,0.3,1.6,0.4l4.2,0.4c1.9,0.2,3.4,0.7,4.3,1.7s1.4,2.4,1.4,4.2c0,1.3-0.3,2.5-1,3.4
	c-0.6,0.9-1.6,1.6-2.9,2.1C273,76,271.4,76.3,269.4,76.3z M269.6,61.2c-1.7,0-3.1-0.4-4.1-1.1c-1.1-0.7-1.8-1.7-2.3-3
	s-0.8-2.8-0.8-4.4c0-1.9,0.3-3.4,0.8-4.7s1.4-2.2,2.4-2.9c1.1-0.7,2.4-1,4-1s3,0.4,4,1.2s1.8,1.9,2.3,3.2s0.7,2.8,0.7,4.4
	c0,1.7-0.2,3.1-0.7,4.4c-0.4,1.3-1.2,2.3-2.2,3C272.7,60.9,271.3,61.2,269.6,61.2z M269.6,58c0.6,0,1.1-0.1,1.5-0.4
	c0.4-0.2,0.7-0.6,0.8-1c0.2-0.4,0.3-1,0.4-1.7s0.1-1.4,0.1-2.2s0-1.6-0.1-2.3s-0.2-1.2-0.4-1.7c-0.2-0.5-0.5-0.8-0.9-1.1
	s-0.9-0.4-1.5-0.4s-1.1,0.1-1.5,0.4s-0.7,0.6-0.9,1c-0.2,0.5-0.4,1-0.4,1.7c-0.1,0.7-0.1,1.4-0.1,2.3c0,0.8,0,1.5,0.1,2.1
	s0.2,1.2,0.4,1.7c0.2,0.5,0.5,0.8,0.9,1.1C268.4,57.8,268.9,58,269.6,58z M275.7,48.5l-1.1-1.7c0.2-0.4,0.7-0.9,1.5-1.5
	s1.7-1.1,2.6-1.5l1.2,2.9c-0.4,0.1-0.9,0.2-1.6,0.5c-0.7,0.2-1.3,0.5-1.8,0.7C276,48.2,275.7,48.4,275.7,48.5z M282,68.7V44.4h4.6
	v24.3H282z M282,40.8v-4.7h4.6v4.7H282z M298.4,69c-1.8,0-3.3-0.4-4.3-1.1c-1.1-0.7-1.8-1.8-2.3-3.1c-0.4-1.3-0.7-2.9-0.7-4.7V53
	c0-1.8,0.2-3.4,0.7-4.7c0.4-1.3,1.2-2.4,2.3-3.1c1.1-0.7,2.5-1.1,4.3-1.1s3.3,0.4,4.3,1.1c1,0.7,1.8,1.8,2.2,3.1
	c0.4,1.3,0.7,2.9,0.7,4.7v7.1c0,1.8-0.2,3.4-0.7,4.7c-0.4,1.3-1.2,2.4-2.2,3.1C301.6,68.6,300.2,69,298.4,69z M298.4,65.7
	c0.9,0,1.5-0.3,1.9-0.8s0.6-1.2,0.6-2c0.1-0.8,0.1-1.7,0.1-2.6v-7.6c0-0.9,0-1.8-0.1-2.6s-0.3-1.5-0.6-2c-0.4-0.5-1-0.8-1.9-0.8
	s-1.5,0.3-1.9,0.8s-0.6,1.2-0.7,2s-0.1,1.7-0.1,2.6v7.6c0,0.9,0,1.8,0.1,2.6s0.3,1.5,0.7,2C296.9,65.4,297.5,65.7,298.4,65.7z
	 M309.8,68.7V44.4h4.6v2.4c0.8-0.8,1.7-1.4,2.7-1.9s2.1-0.8,3.3-0.8c1,0,1.8,0.3,2.3,0.8s0.9,1.1,1.1,1.9c0.2,0.8,0.3,1.5,0.3,2.3
	v19.6h-4.6V50.3c0-0.9-0.1-1.5-0.4-2s-0.8-0.7-1.6-0.7c-0.5,0-1.1,0.1-1.6,0.4c-0.6,0.3-1.1,0.7-1.6,1.1v19.6H309.8z M335.5,69
	c-1.9,0-3.4-0.4-4.5-1.1s-1.8-1.8-2.2-3.3c-0.4-1.4-0.6-3.2-0.6-5.3v-5.5c0-2.2,0.2-3.9,0.6-5.4c0.4-1.4,1.2-2.5,2.3-3.2
	c1.1-0.7,2.6-1.1,4.4-1.1c2.1,0,3.6,0.4,4.6,1.3c1,0.8,1.6,2.1,2,3.6c0.3,1.6,0.5,3.5,0.5,5.7v2h-9.8v4.9c0,1,0.1,1.8,0.3,2.4
	c0.2,0.6,0.5,1.1,0.9,1.4s1,0.4,1.6,0.4c0.7,0,1.2-0.2,1.6-0.5s0.6-0.8,0.7-1.4s0.2-1.3,0.2-2.1v-1.5h4.5v0.9c0,2.4-0.5,4.4-1.6,5.8
	C339.8,68.3,338,69,335.5,69z M332.7,54.2h5.3V52c0-1-0.1-1.9-0.2-2.5c-0.1-0.7-0.4-1.2-0.7-1.6c-0.4-0.3-0.9-0.5-1.7-0.5
	c-0.7,0-1.3,0.2-1.7,0.5c-0.4,0.3-0.7,0.9-0.8,1.7c-0.1,0.8-0.2,1.9-0.2,3.3L332.7,54.2L332.7,54.2z M352.4,69c-2,0-3.7-0.6-4.9-1.9
	c-1.2-1.2-1.9-2.9-2.1-4.9l3.8-1.1c0.2,1.5,0.6,2.7,1.2,3.5c0.5,0.8,1.3,1.2,2.4,1.2c0.8,0,1.5-0.2,1.9-0.7s0.6-1.1,0.6-1.9
	c0-0.7-0.2-1.3-0.5-1.9c-0.3-0.6-0.8-1.1-1.5-1.7l-4.2-3.6c-0.9-0.7-1.6-1.5-2.2-2.4s-0.9-2.1-0.9-3.5c0-1.3,0.3-2.4,0.8-3.3
	c0.5-0.9,1.3-1.6,2.2-2c1-0.5,2.1-0.7,3.4-0.7c2.1,0,3.6,0.6,4.7,1.9s1.7,2.8,1.9,4.5l-3.3,1.1c-0.1-0.8-0.3-1.6-0.5-2.2
	c-0.2-0.6-0.6-1.1-1-1.5c-0.4-0.3-1-0.5-1.7-0.5s-1.3,0.2-1.8,0.7c-0.4,0.5-0.7,1.1-0.7,1.7c0,0.4,0.1,0.8,0.3,1.2
	c0.2,0.4,0.5,0.8,1,1.2l4.4,3.9c0.6,0.5,1.2,1.1,1.7,1.7c0.5,0.6,1,1.3,1.3,2.1s0.5,1.7,0.5,2.7c0,1.4-0.3,2.5-0.9,3.4
	s-1.4,1.6-2.4,2.1C355,68.8,353.8,69,352.4,69z"/>
</svg>
