<?xml version="1.0" encoding="utf-8"?>
<!-- Generator: Adobe Illustrator 26.0.0, SVG Export Plug-In . SVG Version: 6.00 Build 0)  -->
<svg version="1.1" id="Capa_1" xmlns="http://www.w3.org/2000/svg" xmlns:xlink="http://www.w3.org/1999/xlink" x="0px" y="0px"
	 viewBox="0 0 1405.2 1497.6" style="enable-background:new 0 0 1405.2 1497.6;" xml:space="preserve">
<style type="text/css">
	.st0{fill:url(#SVGID_1_);}
	.st1{opacity:0.38;}
	.st2{fill:#FFFFFF;}
	.st3{fill:#FABB11;}
	.st4{fill:none;stroke:#4A4784;stroke-width:0.98;stroke-linecap:round;stroke-linejoin:round;}
	.st5{fill:none;stroke:#4A4784;stroke-width:0.68;stroke-linecap:round;stroke-linejoin:round;}
	.st6{fill:#4A4784;}
	.st7{fill:none;stroke:#FFFFFF;stroke-width:1.67;stroke-linecap:round;stroke-linejoin:round;}
	.st8{fill:#192E35;}
	.st9{fill:#FBFBFB;}
	.st10{fill:#F9BA0C;}
	.st11{fill:#EE7A3D;}
	.st12{fill:#E1E0E0;}
</style>
<g>
	<g>
		<linearGradient id="SVGID_1_" gradientUnits="userSpaceOnUse" x1="157.7254" y1="1170.2742" x2="1402.9354" y2="409.3125">
			<stop  offset="0" style="stop-color:#F9BA0C"/>
			<stop  offset="1" style="stop-color:#EE7A3D"/>
		</linearGradient>
		<path class="st0" d="M1057.4,1136.4c-120.1,5.3-220.5-47.5-277.5-85.6c-31.3-20.9-67.2-35.1-105.1-41.5
			c-37.9-6.4-76.7-4.9-113.9,4.4c-91,22.7-126.9,80.7-270.8,62.6c-216.9-27.2-258.3-260-38.7-312.2C471,712,361.2,600.5,406.6,486.1
			c45.4-114.4,184.6-91.2,289.3-50c62.7,24.6,126.5-32.9,272.3-68.8c77.8-19.2,98.8,77.3,241,92.4c87.3,4.1,143.1,149.2-4.9,205.5
			c-90.8,34.5-82.4,120.4-9.4,149.8c22.2,8.9,38,28.2,53.1,45.8C1311.3,934,1294.7,1126,1057.4,1136.4z"/>
	</g>
	<g class="st1">
		<path class="st2" d="M1080.8,941.1l-19.4,33.6C1064,961.4,1071,949.7,1080.8,941.1z"/>
		<path class="st2" d="M1104.6,927.9l-42.7,73.9c-1-4-1.6-8.1-1.7-12.3l32.9-57C1096.7,930.6,1100.6,929,1104.6,927.9z"/>
		<path class="st2" d="M1122.3,925.5l-53.5,92.8c-1.6-2.7-3-5.4-4.1-8.3l48.4-83.9c2.8-0.4,5.7-0.6,8.6-0.6H1122.3z"/>
		<path class="st2" d="M1137.4,927.5l-59.3,102.8c-1.9-1.9-3.7-4-5.3-6.2l56.7-98.2C1132.1,926.3,1134.8,926.8,1137.4,927.5z"/>
		<path class="st2" d="M1150.6,932.7l-61.5,106.4c-2.2-1.4-4.3-2.9-6.3-4.5l60.7-105.1C1146,930.5,1148.4,931.5,1150.6,932.7z"/>
		<path class="st2" d="M1162.2,940.8l-60.3,104.4c-2.5-0.8-4.8-1.8-7.2-3l61.3-106.2C1158.3,937.5,1160.3,939.1,1162.2,940.8z"/>
		<path class="st2" d="M1172.1,951.9l-55.6,96.3c-2.8-0.2-5.5-0.6-8.2-1.2l58.6-101.6C1168.8,947.4,1170.5,949.6,1172.1,951.9z"/>
		<path class="st2" d="M1179.7,966.8l-46.5,80.5c-3.1,0.6-6.3,1-9.5,1.1l52.2-90.4C1177.4,960.9,1178.7,963.8,1179.7,966.8z"/>
		<path class="st2" d="M1179.1,1008.9c-2.3,6-5.5,11.6-9.5,16.5L1179.1,1008.9z"/>
		<path class="st2" d="M1183.1,987c0,0.8,0,1.5,0,2.3l-28.8,49.8c-3.8,2.5-8,4.5-12.3,6l40.1-69.4
			C1182.8,979.3,1183.1,983.1,1183.1,987z"/>
		<path class="st2" d="M1080.8,941.1l-19.4,33.6C1064,961.4,1071,949.7,1080.8,941.1z"/>
		<path class="st2" d="M1104.6,927.9l-42.7,73.9c-1-4-1.6-8.1-1.7-12.3l32.9-57C1096.7,930.6,1100.6,929,1104.6,927.9z"/>
		<path class="st2" d="M1122.3,925.5l-53.5,92.8c-1.6-2.7-3-5.4-4.1-8.3l48.4-83.9c2.8-0.4,5.7-0.6,8.6-0.6H1122.3z"/>
		<path class="st2" d="M1137.4,927.5l-59.3,102.8c-1.9-1.9-3.7-4-5.3-6.2l56.7-98.2C1132.1,926.3,1134.8,926.8,1137.4,927.5z"/>
		<path class="st2" d="M1150.6,932.7l-61.5,106.4c-2.2-1.4-4.3-2.9-6.3-4.5l60.7-105.1C1146,930.5,1148.4,931.5,1150.6,932.7z"/>
		<path class="st2" d="M1162.2,940.8l-60.3,104.4c-2.5-0.8-4.8-1.8-7.2-3l61.3-106.2C1158.3,937.5,1160.3,939.1,1162.2,940.8z"/>
		<path class="st2" d="M1172.1,951.9l-55.6,96.3c-2.8-0.2-5.5-0.6-8.2-1.2l58.6-101.6C1168.8,947.4,1170.5,949.6,1172.1,951.9z"/>
		<path class="st2" d="M1179.7,966.8l-46.5,80.5c-3.1,0.6-6.3,1-9.5,1.1l52.2-90.4C1177.4,960.9,1178.7,963.8,1179.7,966.8z"/>
		<path class="st2" d="M1183.1,987c0,0.8,0,1.5,0,2.3l-28.8,49.8c-3.8,2.5-8,4.5-12.3,6l40.1-69.4
			C1182.8,979.3,1183.1,983.1,1183.1,987z"/>
		<path class="st2" d="M1179.1,1008.9c-2.3,6-5.5,11.6-9.5,16.5L1179.1,1008.9z"/>
	</g>
	<g class="st1">
		<path class="st2" d="M962.3,507.3L935,554.6C938.8,536,948.6,519.5,962.3,507.3z"/>
		<path class="st2" d="M995.9,488.8l-60,104c-1.4-5.6-2.2-11.4-2.5-17.3l46.3-80.1C984.8,492.6,990.2,490.4,995.9,488.8z"/>
		<path class="st2" d="M1020.7,485.4l-75.3,130.5c-2.2-3.7-4.2-7.6-5.8-11.7l68.1-118c3.9-0.6,8-0.9,12.1-0.9H1020.7z"/>
		<path class="st2" d="M1041.9,488.3l-83.4,144.5c-2.7-2.7-5.2-5.6-7.5-8.7l79.7-138.1C1034.5,486.6,1038.2,487.3,1041.9,488.3z"/>
		<path class="st2" d="M1060.6,495.6l-86.5,149.7c-3.1-1.9-6-4-8.8-6.3l85.4-147.9C1054.1,492.4,1057.4,493.9,1060.6,495.6z"/>
		<path class="st2" d="M1076.9,507l-84.8,146.9c-3.5-1.2-6.8-2.6-10.1-4.2l86.3-149.4C1071.3,502.4,1074.1,504.6,1076.9,507z"/>
		<path class="st2" d="M1090.7,522.6l-78.2,135.5c-3.9-0.3-7.8-0.9-11.5-1.8l82.5-142.8C1086.2,516.3,1088.6,519.4,1090.7,522.6z"/>
		<path class="st2" d="M1101.5,543.6l-65.4,113.2c-4.4,0.9-8.8,1.4-13.3,1.5l73.4-127.1C1098.2,535.2,1100.1,539.3,1101.5,543.6z"/>
		<path class="st2" d="M1100.5,602.8c-3.3,8.5-7.8,16.3-13.4,23.2L1100.5,602.8z"/>
		<path class="st2" d="M1106.3,571.9c0,1.1,0,2.2,0,3.2l-40.4,70c-5.4,3.5-11.2,6.3-17.4,8.4l56.4-97.6
			C1105.7,561.1,1106.3,566.4,1106.3,571.9z"/>
		<path class="st2" d="M962.3,507.3L935,554.6C938.8,536,948.6,519.5,962.3,507.3z"/>
		<path class="st2" d="M995.9,488.8l-60,104c-1.4-5.6-2.2-11.4-2.5-17.3l46.3-80.1C984.8,492.6,990.2,490.4,995.9,488.8z"/>
		<path class="st2" d="M1020.7,485.4l-75.3,130.5c-2.2-3.7-4.2-7.6-5.8-11.7l68.1-118c3.9-0.6,8-0.9,12.1-0.9H1020.7z"/>
		<path class="st2" d="M1041.9,488.3l-83.4,144.5c-2.7-2.7-5.2-5.6-7.5-8.7l79.7-138.1C1034.5,486.6,1038.2,487.3,1041.9,488.3z"/>
		<path class="st2" d="M1060.6,495.6l-86.5,149.7c-3.1-1.9-6-4-8.8-6.3l85.4-147.9C1054.1,492.4,1057.4,493.9,1060.6,495.6z"/>
		<path class="st2" d="M1076.9,507l-84.8,146.9c-3.5-1.2-6.8-2.6-10.1-4.2l86.3-149.4C1071.3,502.4,1074.1,504.6,1076.9,507z"/>
		<path class="st2" d="M1090.7,522.6l-78.2,135.5c-3.9-0.3-7.8-0.9-11.5-1.8l82.5-142.8C1086.2,516.3,1088.6,519.4,1090.7,522.6z"/>
		<path class="st2" d="M1101.5,543.6l-65.4,113.2c-4.4,0.9-8.8,1.4-13.3,1.5l73.4-127.1C1098.2,535.2,1100.1,539.3,1101.5,543.6z"/>
		<path class="st2" d="M1106.3,571.9c0,1.1,0,2.2,0,3.2l-40.4,70c-5.4,3.5-11.2,6.3-17.4,8.4l56.4-97.6
			C1105.7,561.1,1106.3,566.4,1106.3,571.9z"/>
		<path class="st2" d="M1100.5,602.8c-3.3,8.5-7.8,16.3-13.4,23.2L1100.5,602.8z"/>
	</g>
	<g class="st1">
		<path class="st2" d="M358.7,792.6l-19.4,33.6C342,813,349,801.2,358.7,792.6z"/>
		<path class="st2" d="M382.6,779.4l-42.7,73.9c-1-4-1.6-8.1-1.7-12.3l32.9-57C374.7,782.1,378.5,780.6,382.6,779.4z"/>
		<path class="st2" d="M400.2,777l-53.5,92.8c-1.6-2.7-3-5.4-4.1-8.3l48.4-83.9c2.8-0.4,5.7-0.6,8.6-0.6H400.2z"/>
		<path class="st2" d="M415.3,779.1L356,881.9c-1.9-1.9-3.7-4-5.3-6.2l56.7-98.2C410.1,777.9,412.7,778.4,415.3,779.1z"/>
		<path class="st2" d="M428.6,784.3l-61.5,106.4c-2.2-1.4-4.3-2.9-6.3-4.5l60.7-105.1C424,782,426.3,783.1,428.6,784.3z"/>
		<path class="st2" d="M440.2,792.4l-60.3,104.4c-2.5-0.8-4.8-1.8-7.2-3l61.3-106.2C436.2,789.1,438.2,790.7,440.2,792.4z"/>
		<path class="st2" d="M450,803.4l-55.6,96.3c-2.8-0.2-5.5-0.6-8.2-1.2L444.9,797C446.8,799,448.5,801.2,450,803.4z"/>
		<path class="st2" d="M457.7,818.4l-46.5,80.5c-3.1,0.6-6.3,1-9.5,1.1l52.2-90.4C455.4,812.4,456.7,815.4,457.7,818.4z"/>
		<path class="st2" d="M457,860.5c-2.3,6-5.5,11.6-9.5,16.5L457,860.5z"/>
		<path class="st2" d="M461.1,838.5c0,0.8,0,1.5,0,2.3l-28.8,49.8c-3.8,2.5-8,4.5-12.3,6l40.1-69.4
			C460.7,830.8,461.1,834.6,461.1,838.5z"/>
		<path class="st2" d="M358.7,792.6l-19.4,33.6C342,813,349,801.2,358.7,792.6z"/>
		<path class="st2" d="M382.6,779.4l-42.7,73.9c-1-4-1.6-8.1-1.7-12.3l32.9-57C374.7,782.1,378.5,780.6,382.6,779.4z"/>
		<path class="st2" d="M400.2,777l-53.5,92.8c-1.6-2.7-3-5.4-4.1-8.3l48.4-83.9c2.8-0.4,5.7-0.6,8.6-0.6H400.2z"/>
		<path class="st2" d="M415.3,779.1L356,881.9c-1.9-1.9-3.7-4-5.3-6.2l56.7-98.2C410.1,777.9,412.7,778.4,415.3,779.1z"/>
		<path class="st2" d="M428.6,784.3l-61.5,106.4c-2.2-1.4-4.3-2.9-6.3-4.5l60.7-105.1C424,782,426.3,783.1,428.6,784.3z"/>
		<path class="st2" d="M440.2,792.4l-60.3,104.4c-2.5-0.8-4.8-1.8-7.2-3l61.3-106.2C436.2,789.1,438.2,790.7,440.2,792.4z"/>
		<path class="st2" d="M450,803.4l-55.6,96.3c-2.8-0.2-5.5-0.6-8.2-1.2L444.9,797C446.8,799,448.5,801.2,450,803.4z"/>
		<path class="st2" d="M457.7,818.4l-46.5,80.5c-3.1,0.6-6.3,1-9.5,1.1l52.2-90.4C455.4,812.4,456.7,815.4,457.7,818.4z"/>
		<path class="st2" d="M461.1,838.5c0,0.8,0,1.5,0,2.3l-28.8,49.8c-3.8,2.5-8,4.5-12.3,6l40.1-69.4
			C460.7,830.8,461.1,834.6,461.1,838.5z"/>
		<path class="st2" d="M457,860.5c-2.3,6-5.5,11.6-9.5,16.5L457,860.5z"/>
	</g>
	<g>
		<path class="st3" d="M1066.3,844.9c32.1,0,58.2-24.4,58.2-54.5s-26-54.5-58.2-54.5s-58.2,24.4-58.2,54.5
			S1034.2,844.9,1066.3,844.9z"/>
		<path class="st2" d="M1066.3,832.9c25,0,45.3-19,45.3-42.5c0-23.5-20.3-42.5-45.3-42.5c-25,0-45.3,19-45.3,42.5
			C1021,813.8,1041.3,832.9,1066.3,832.9z"/>
		<path class="st4" d="M1066.3,790.4v-25.6"/>
		<path class="st4" d="M1066.3,790.4L1083,806"/>
		<path class="st5" d="M1101.2,809.2l-4.7-2.5"/>
		<path class="st5" d="M1106.6,790.4h-5.4"/>
		<path class="st5" d="M1101.2,771.5l-4.6,2.5"/>
		<path class="st5" d="M1086.4,757.7l-2.7,4.3"/>
		<path class="st5" d="M1066.3,757.7v-5.1"/>
		<path class="st5" d="M1048.9,762.1l-2.7-4.4"/>
		<path class="st5" d="M1036.1,774l-4.6-2.5"/>
		<path class="st5" d="M1031.5,790.4h-5.4"/>
		<path class="st5" d="M1036.2,806.7l-4.7,2.5"/>
		<path class="st6" d="M1066.3,792.8c1.4,0,2.6-1.1,2.6-2.5c0-1.4-1.2-2.5-2.6-2.5c-1.4,0-2.6,1.1-2.6,2.5
			C1063.7,791.7,1064.9,792.8,1066.3,792.8z"/>
	</g>
	<g>
		<path class="st3" d="M328.5,574.6c-8.3-7.8-18.8-13.2-30.2-15.7c-11.4-2.5-23.4-1.9-34.5,1.7c-11.1,3.6-20.9,10-28.3,18.6
			c-7.4,8.6-12.1,18.9-13.5,29.8s0.4,22,5.4,32c5,10,12.8,18.5,22.7,24.5c9.9,6,21.3,9.3,33.1,9.5c11.7,0.2,23.3-2.7,33.4-8.4
			c1.1-0.6,2.3-1,3.6-1.1c1.3-0.1,2.6,0,3.8,0.3l15.8,4.4c0.3,0.1,0.6,0.1,0.8,0c0.3-0.1,0.5-0.2,0.7-0.4c0.2-0.2,0.3-0.4,0.4-0.7
			c0.1-0.3,0.1-0.5,0-0.8l-4.7-14.9c-0.4-1.2-0.5-2.4-0.3-3.6c0.2-1.2,0.6-2.4,1.2-3.4c7.2-11.2,10.2-24.4,8.5-37.4
			C344.7,596,338.4,583.9,328.5,574.6z"/>
		<path class="st7" d="M248.7,590.5h71"/>
		<path class="st7" d="M302.7,607.6h17"/>
		<path class="st7" d="M248.7,607.6h37.1"/>
		<path class="st7" d="M281.2,624.8h38.5"/>
		<path class="st7" d="M248.7,624.8h18.6"/>
		<path class="st7" d="M302.7,641.9h17"/>
		<path class="st7" d="M248.7,641.9h36.3"/>
	</g>
	<g>
		<path class="st3" d="M1009.4,267.6c6-5.6,13.6-9.6,21.9-11.4c8.3-1.8,17-1.4,25,1.2c8.1,2.6,15.2,7.3,20.5,13.5
			c5.4,6.2,8.8,13.7,9.8,21.6c1,7.9-0.3,16-3.9,23.2c-3.6,7.2-9.3,13.4-16.4,17.7c-7.1,4.4-15.5,6.7-24,6.9
			c-8.5,0.1-16.9-2-24.2-6.1c-0.8-0.4-1.7-0.7-2.6-0.8c-0.9-0.1-1.9,0-2.8,0.2l-11.5,3.2c-0.2,0.1-0.4,0.1-0.6,0
			c-0.2,0-0.4-0.1-0.5-0.3c-0.1-0.1-0.2-0.3-0.3-0.5c0-0.2,0-0.4,0-0.6l3.4-10.8c0.3-0.8,0.4-1.7,0.2-2.6c-0.1-0.9-0.4-1.7-0.9-2.5
			c-5.2-8.2-7.4-17.7-6.1-27.1C997.7,283.1,1002.3,274.4,1009.4,267.6z"/>
		<path class="st2" d="M1016.4,304.7c4.1,0,7.3-3.1,7.3-6.9c0-3.8-3.3-6.9-7.3-6.9c-4.1,0-7.3,3.1-7.3,6.9
			C1009,301.6,1012.3,304.7,1016.4,304.7z"/>
		<path class="st2" d="M1041.6,304.7c4.1,0,7.3-3.1,7.3-6.9c0-3.8-3.3-6.9-7.3-6.9c-4.1,0-7.3,3.1-7.3,6.9
			C1034.2,301.6,1037.5,304.7,1041.6,304.7z"/>
		<path class="st2" d="M1066.8,304.7c4.1,0,7.3-3.1,7.3-6.9c0-3.8-3.3-6.9-7.3-6.9c-4.1,0-7.3,3.1-7.3,6.9
			C1059.4,301.6,1062.7,304.7,1066.8,304.7z"/>
	</g>
	<g>
		<g>
			<g>
				<g>
					<g>
						<g>
							<g>
								<path class="st8" d="M884.1,1296.4l-366.1-1.7c-44-0.2-79.6-36-79.4-80.1l3.9-917.7c0.2-44.1,36.1-79.6,80.1-79.4l366.1,1.7
									c44,0.2,79.6,36,79.4,80.1l-3.9,917.7C964,1261,928.1,1296.6,884.1,1296.4z"/>
							</g>
							<g>
								<path class="st9" d="M888.2,250.8l-71-0.3c-9.5,0-17.3,8-17.3,17.9l-0.1,12.9c0,9.9-7.8,18-17.3,17.9l-138.3-0.6
									c-9.5,0-17.2-8.1-17.2-18.1l0.1-12.9c0-9.9-7.6-18.1-17.2-18.1l-25-0.1l-62.1-0.3c-30.8-0.1-56,24.8-56.1,55.6l-3.8,895.7
									c-0.1,30.8,24.8,55.9,55.6,56.1l365.3,1.7c30.8,0.1,56-24.8,56.1-55.6l3.8-895.7C943.9,276.1,919,251,888.2,250.8z"/>
							</g>
						</g>
					</g>
				</g>
			</g>
			<g>
				<path class="st10" d="M552.4,392.5c0,9.7-7.9,17.6-17.6,17.6c-9.7,0-17.6-7.9-17.6-17.6c0-9.7,7.9-17.6,17.6-17.6
					C544.5,374.9,552.4,382.8,552.4,392.5z"/>
				<g>
					<path class="st10" d="M585.1,379.3h294.6c9,0,16.3,7.3,16.3,16.3v44.6c0,9-7.3,16.3-16.3,16.3H615.9c-9,0-16.3-7.3-16.3-16.3
						v-47.9L585.1,379.3z"/>
					<g>
						<g>
							<g>
								<g>
									<path class="st2" d="M848.8,407c0,0.4-45.2,0.7-101,0.7c-55.8,0-101-0.3-101-0.7s45.2-0.7,101-0.7
										C803.5,406.2,848.8,406.6,848.8,407z"/>
								</g>
							</g>
						</g>
						<g>
							<g>
								<g>
									<path class="st2" d="M848.8,425.2c0,0.4-45.2,0.7-101,0.7c-55.8,0-101-0.3-101-0.7s45.2-0.7,101-0.7
										C803.5,424.4,848.8,424.8,848.8,425.2z"/>
								</g>
							</g>
						</g>
					</g>
				</g>
			</g>
			<g>
				<path class="st10" d="M552.4,824.4c0,9.7-7.9,17.6-17.6,17.6c-9.7,0-17.6-7.9-17.6-17.6c0-9.7,7.9-17.6,17.6-17.6
					C544.5,806.8,552.4,814.7,552.4,824.4z"/>
				<g>
					<path class="st10" d="M585.1,811.2h294.6c9,0,16.3,7.3,16.3,16.3v44.6c0,9-7.3,16.3-16.3,16.3H615.9c-9,0-16.3-7.3-16.3-16.3
						v-47.9L585.1,811.2z"/>
					<g>
						<g>
							<g>
								<g>
									<path class="st2" d="M848.8,838.9c0,0.4-45.2,0.7-101,0.7c-55.8,0-101-0.3-101-0.7s45.2-0.7,101-0.7
										C803.5,838.2,848.8,838.5,848.8,838.9z"/>
								</g>
							</g>
						</g>
						<g>
							<g>
								<g>
									<path class="st2" d="M848.8,857.1c0,0.4-45.2,0.7-101,0.7c-55.8,0-101-0.3-101-0.7c0-0.4,45.2-0.7,101-0.7
										C803.5,856.3,848.8,856.7,848.8,857.1z"/>
								</g>
							</g>
						</g>
					</g>
				</g>
			</g>
			<g>
				<circle class="st11" cx="860.7" cy="527.4" r="17.3"/>
				<g>
					<path class="st11" d="M819.1,503.2H543.1c-8.4,0-15.3,6.8-15.3,15.3v41.8c0,8.4,6.8,15.3,15.3,15.3h247.1
						c8.4,0,15.3-6.8,15.3-15.3v-44.9L819.1,503.2z"/>
					<g>
						<g>
							<g>
								<g>
									<path class="st2" d="M572.1,529.1c0-0.4,42.4-0.7,94.6-0.7c52.3,0,94.6,0.3,94.6,0.7c0,0.4-42.4,0.7-94.6,0.7
										C614.5,529.9,572.1,529.5,572.1,529.1z"/>
								</g>
							</g>
						</g>
						<g>
							<g>
								<g>
									<path class="st2" d="M572.1,546.2c0-0.4,42.4-0.7,94.6-0.7c52.3,0,94.6,0.3,94.6,0.7c0,0.4-42.4,0.7-94.6,0.7
										C614.5,546.9,572.1,546.6,572.1,546.2z"/>
								</g>
							</g>
						</g>
					</g>
				</g>
			</g>
			<g>
				<path class="st10" d="M517.3,649c0,9.7,7.9,17.6,17.6,17.6c9.7,0,17.6-7.9,17.6-17.6c0-9.7-7.9-17.6-17.6-17.6
					C525.1,631.5,517.3,639.3,517.3,649z"/>
				<g>
					<path class="st10" d="M596.1,623.6H872c8.4,0,15.3,6.8,15.3,15.3v41.8c0,8.4-6.8,15.3-15.3,15.3H624.9
						c-8.4,0-15.3-6.8-15.3-15.3v-44.9L596.1,623.6z"/>
					<g>
						<g>
							<g>
								<g>
									<path class="st2" d="M843,649.5c0,0.4-42.4,0.7-94.6,0.7c-52.3,0-94.6-0.3-94.6-0.7c0-0.4,42.4-0.7,94.6-0.7
										C800.6,648.8,843,649.1,843,649.5z"/>
								</g>
							</g>
						</g>
						<g>
							<g>
								<g>
									<path class="st2" d="M843,666.6c0,0.4-42.4,0.7-94.6,0.7c-52.3,0-94.6-0.3-94.6-0.7c0-0.4,42.4-0.7,94.6-0.7
										C800.6,665.8,843,666.1,843,666.6z"/>
								</g>
							</g>
						</g>
					</g>
				</g>
				<g>
					<g>
						<g>
							<path class="st11" d="M872.3,776.8h-81.1c-2.2,0-4-1.8-4-4v-38.6c0-2.2,1.8-4,4-4h81.1c2.2,0,4,1.8,4,4v38.6
								C876.3,775,874.5,776.8,872.3,776.8z"/>
						</g>
					</g>
					<g>
						<g>
							<g>
								<path class="st2" d="M860.4,753.5c0,0.4-11.7,0.7-26.2,0.7c-14.4,0-26.2-0.3-26.2-0.7c0-0.4,11.7-0.7,26.2-0.7
									C848.7,752.7,860.4,753.1,860.4,753.5z"/>
							</g>
						</g>
					</g>
				</g>
			</g>
			<g>
				<g>
					<g>
						<rect x="496.7" y="1039.9" class="st12" width="43.6" height="43.6"/>
					</g>
				</g>
				<g>
					<g>
						<rect x="548.6" y="1039.9" class="st12" width="43.6" height="43.6"/>
					</g>
				</g>
				<g>
					<g>
						<rect x="600.5" y="1039.9" class="st12" width="43.6" height="43.6"/>
					</g>
				</g>
				<g>
					<g>
						<rect x="652.4" y="1039.9" class="st12" width="43.6" height="43.6"/>
					</g>
				</g>
				<g>
					<g>
						<rect x="704.3" y="1039.9" class="st12" width="43.6" height="43.6"/>
					</g>
				</g>
				<g>
					<g>
						<rect x="496.7" y="1147.6" class="st12" width="45.6" height="45.6"/>
					</g>
				</g>
				<g>
					<g>
						<rect x="550.9" y="1147.7" class="st12" width="220" height="45.6"/>
					</g>
				</g>
				<g>
					<g>
						<g>
							<path class="st8" d="M904.2,1027.3c0,0,0-1.1-0.1-3.3c0-2.2,0-5.4-0.1-9.6c0-8.5-0.1-21-0.2-37.3l0.3,0.3
								c-73.8,0.1-228.6,0.2-407.4,0.4h0l0.7-0.7c0,17.2,0,34.2,0,50.2l-0.7-0.7c114.6,0.1,216.4,0.2,289.5,0.3
								c36.6,0.1,66,0.2,86.4,0.2c10.1,0,18,0.1,23.4,0.1c2.6,0,4.7,0,6.1,0C903.4,1027.2,904.2,1027.3,904.2,1027.3s-0.7,0-2,0
								c-1.4,0-3.4,0-6,0c-5.3,0-13.1,0.1-23.2,0.1c-20.3,0.1-49.7,0.1-86.2,0.2c-73.3,0.1-175.2,0.2-290.1,0.3l-0.7,0v-0.7
								c0-16,0-33,0-50.2l0-0.7h0.7h0c178.8,0.2,333.7,0.3,407.4,0.4l0.3,0l0,0.3c-0.1,16.4-0.1,29-0.2,37.5c0,4.2-0.1,7.4-0.1,9.6
								C904.2,1026.2,904.2,1027.3,904.2,1027.3z"/>
						</g>
					</g>
				</g>
				<g>
					<g>
						<g>
							<path class="st11" d="M878.6,1006.7h-7.7c-0.8,0-1.4-0.6-1.4-1.4v-18c0-0.8,0.6-1.4,1.4-1.4h7.7c0.8,0,1.4,0.6,1.4,1.4v18
								C880,1006.1,879.4,1006.7,878.6,1006.7z"/>
						</g>
					</g>
					<g>
						<g>
							<g>
								<path class="st11" d="M887.4,1002.6c0,0.2-1.2,0.3-3.3,0.4l0.4-0.4c-0.1,1.7-0.6,4.1-2.1,6.5c-0.8,1.2-1.9,2.3-3.3,3
									c-1.5,0.8-3.2,1-4.9,0.9c-3.3-0.1-6.2-2.1-7.7-4.2c-1.6-2.2-2.3-4.4-2.6-6.1l0.4,0.4c-2.4-0.1-3.8-0.3-3.8-0.4
									c0-0.2,1.4-0.3,3.8-0.4l0.3,0l0.1,0.4c0.4,1.5,1.3,3.6,2.7,5.5c1.5,1.9,3.8,3.5,6.7,3.6c1.5,0.1,2.9-0.1,4.2-0.7
									c1.2-0.6,2.2-1.5,2.9-2.5c1.5-2,2.1-4.2,2.3-5.8l0.1-0.4l0.3,0C886.2,1002.3,887.4,1002.4,887.4,1002.6z"/>
							</g>
						</g>
					</g>
					<g>
						<g>
							<g>
								<path class="st11" d="M874.8,1012.3c0.4,0,0.7,1.4,0.7,3.2c0,1.8-0.3,3.2-0.7,3.2c-0.4,0-0.7-1.4-0.7-3.2
									C874,1013.8,874.4,1012.3,874.8,1012.3z"/>
							</g>
						</g>
					</g>
				</g>
				<g>
					<g>
						<rect x="778.4" y="1147.6" class="st12" width="45.6" height="45.6"/>
					</g>
				</g>
				<g>
					<g>
						<rect x="832.6" y="1147.6" class="st11" width="71.5" height="45.6"/>
					</g>
				</g>
				<g>
					<g>
						<rect x="756.7" y="1039.9" class="st12" width="43.6" height="43.6"/>
					</g>
				</g>
				<g>
					<g>
						<rect x="808.6" y="1039.9" class="st12" width="43.6" height="43.6"/>
					</g>
				</g>
				<g>
					<g>
						<rect x="860.5" y="1039.9" class="st12" width="43.6" height="43.6"/>
					</g>
				</g>
				<g>
					<g>
						<rect x="496.7" y="1093.8" class="st12" width="43.6" height="43.6"/>
					</g>
				</g>
				<g>
					<g>
						<rect x="548.6" y="1093.8" class="st12" width="43.6" height="43.6"/>
					</g>
				</g>
				<g>
					<g>
						<rect x="600.5" y="1093.8" class="st12" width="43.6" height="43.6"/>
					</g>
				</g>
				<g>
					<g>
						<rect x="652.4" y="1093.8" class="st12" width="43.6" height="43.6"/>
					</g>
				</g>
				<g>
					<g>
						<rect x="704.3" y="1093.8" class="st12" width="43.6" height="43.6"/>
					</g>
				</g>
				<g>
					<g>
						<rect x="756.7" y="1093.8" class="st12" width="43.6" height="43.6"/>
					</g>
				</g>
				<g>
					<g>
						<rect x="808.6" y="1093.8" class="st12" width="43.6" height="43.6"/>
					</g>
				</g>
				<g>
					<g>
						<rect x="860.5" y="1093.8" class="st12" width="43.6" height="43.6"/>
					</g>
				</g>
			</g>
			<g>
				<g>
					<path class="st11" d="M692.1,939.3c0,4.1-3.4,7.4-7.6,7.4c-4.2,0-7.5-3.4-7.5-7.5c0-4.1,3.4-7.4,7.6-7.4
						C688.8,931.8,692.1,935.2,692.1,939.3z"/>
				</g>
				<g>
					<path class="st11" d="M715.5,939.4c0,4.1-3.4,7.4-7.6,7.4c-4.2,0-7.5-3.4-7.5-7.5c0-4.1,3.4-7.4,7.6-7.4
						C712.1,931.9,715.5,935.3,715.5,939.4z"/>
				</g>
				<g>
					<path class="st11" d="M738.8,939.5c0,4.1-3.4,7.4-7.6,7.4c-4.2,0-7.5-3.4-7.5-7.5c0-4.1,3.4-7.4,7.6-7.4
						S738.9,935.4,738.8,939.5z"/>
				</g>
			</g>
		</g>
		<path class="st2" d="M886.5,1164.4l-1.5-1.1l-0.6-0.5l-1.5-1.1l-9.9-7.5l0,7.5h-31.1v17.9h31.1l0,7.5l9.9-7.5l1.5-1.1l0.6-0.5
			l1.5-1.1l8.3-6.3L886.5,1164.4z M886.5,1175.4l-1.5,1.1l-2.7,2l-1.5,1.1l-6.4,4.8l0-4.8v-1.1h-31.1v-15.7h31.1v-1.1l0-4.8l6.4,4.8
			l1.5,1.1l2.7,2l1.5,1.1l6.3,4.7L886.5,1175.4z"/>
	</g>
</g>
</svg>
