<?xml version="1.0" encoding="utf-8"?>
<!-- Generator: Adobe Illustrator 26.3.0, SVG Export Plug-In . SVG Version: 6.00 Build 0)  -->
<svg version="1.1" id="Capa_1" xmlns="http://www.w3.org/2000/svg" xmlns:xlink="http://www.w3.org/1999/xlink" x="0px" y="0px"
	 viewBox="0 0 361.3 192.7" style="enable-background:new 0 0 361.3 192.7;" xml:space="preserve">
<style type="text/css">
	
		.st0{clip-path:url(#SVGID_00000125573335732290818720000018223538085512693673_);fill:url(#SVGID_00000050623087123947485450000004140616214644007554_);}
	.st1{fill-rule:evenodd;clip-rule:evenodd;fill:#101625;}
	.st2{fill-rule:evenodd;clip-rule:evenodd;fill:#F6A10E;}
	.st3{fill-rule:evenodd;clip-rule:evenodd;fill:#FFFFFF;}
</style>
<g id="logo_00000002363450675572211700000007828603766068038808_">
	<g>
		<defs>
			<path id="SVGID_1_" d="M85.8,8.2c-18.7,0-37.3,6.6-51.7,19.9c-29,26.9-29.4,70.8-1,98.2l52.6,50.1l52.6-50.1
				c28.1-27,28.1-70.3-0.1-97.4C123.9,15.2,104.9,8.2,85.8,8.2C85.8,8.2,85.8,8.2,85.8,8.2"/>
		</defs>
		<clipPath id="SVGID_00000150073076459551460210000016650237225276588976_">
			<use xlink:href="#SVGID_1_"  style="overflow:visible;"/>
		</clipPath>
		
			<linearGradient id="SVGID_00000081649363139712288430000003154887929716267159_" gradientUnits="userSpaceOnUse" x1="-4113.8979" y1="1749.9895" x2="-4111.5464" y2="1749.9895" gradientTransform="matrix(62.6919 0 0 -62.6919 257920.3281 109802.5859)">
			<stop  offset="0" style="stop-color:#FBBB00"/>
			<stop  offset="1" style="stop-color:#EF793A"/>
		</linearGradient>
		
			<rect x="4.7" y="8.2" style="clip-path:url(#SVGID_00000150073076459551460210000016650237225276588976_);fill:url(#SVGID_00000081649363139712288430000003154887929716267159_);" width="161.9" height="168.2"/>
	</g>
	<g>
		<path class="st1" d="M48.9,118l28.3-10.2l0-30.9c2.3,1,13,6.4,15.8,7.9L92.8,108l29.9,10L48.9,118z M77.1,66.2l15.7,7l0.1-37
			l-15.7,6.9L77.1,66.2z M49,56l-0.1,59.6c4.2-1.4,12.2-4.3,15.9-5.6l-0.1-60L49,56z M107,109.7c2.6,1.2,13.7,5.5,15.7,5.9
			l-0.1-59.5L107,49.8C107.1,61.5,107.1,103.9,107,109.7"/>
		<path class="st2" d="M318.5,52.6c1.4,3.8,3.5,8.1,5.1,11.9c0.8,1.9,2.3,4,1.5,6c-1.2,2.8-2.6,3-5.7,2.2l0.1,4.1
			c7.9,1.5,9.8-3,12.1-8.9c2-5.1,4.2-10.2,6.1-15.4l-5.4,0.1l-3.9,12.1l-3.8-12.1L318.5,52.6z"/>
		<path class="st2" d="M287,57.3c2.6-1.2,9-3.6,9.1,1c-4.7,1-11.8,0.4-10.8,7.1c0.3,2.4,2.1,4,4.7,4.2c3.5,0.3,4-0.9,6.1-2.5
			l0.1,2.1l5.1,0c0-3.3,0.7-12.3-1.3-14.7c-2.6-3.1-9.8-2.9-13-0.9L287,57.3z M296.1,61.4c0.5,3.9-3.3,6-5.3,4c-1-1.1-0.5-2.8,1-3.4
			C292.7,61.7,295,61.4,296.1,61.4"/>
		<path class="st2" d="M309.4,56.5c2.1-1.9,4.9-0.3,7,0.1l-0.1-3.6c-3.2-1.9-11.5-1-12.4,3.6c-1.3,6.7,9.6,5.7,8.1,8.7
			c-2.4,2.2-5.8,0.2-8.2-0.4l0.1,4c3.7,1.9,11.7,1.3,13.3-3C319.8,58.6,309,60.3,309.4,56.5"/>
		<path class="st3" d="M261.7,69.8l4.7-11.5l14.1,0c-0.5-0.9-2.9-5.3-3.6-6.4l-10.6,0l-4.6-12.2L261.7,69.8z M281.2,69.8l-18.4,0
			c0.6-1.7,2-5,2.6-6.5l18.6,0.1L281.2,69.8z M265.5,46.1c-0.6-1-2.5-5.6-2.7-6.4l17.5,0l2.9,6.4C277.9,46.1,268.2,46.1,265.5,46.1"
			/>
		<path class="st3" d="M242.9,104.8c4.7-23.3-29-25.5-33.2-7.9C204.2,120.1,239.2,123.1,242.9,104.8 M223.3,93.3
			c11.4-5.3,12.8,12.7,6.3,15.6C218.8,113.8,215.5,97,223.3,93.3"/>
		<path class="st3" d="M299.4,107.9c-5,1.2-17.5,4.8-17.2-4.6l20.2-0.1c0.1-26.2-24.6-22.3-29.2-7c-4.6,15.3,11.7,25.7,26.4,17.9
			L299.4,107.9z M282.1,97.5c0.3-7.2,11-9.4,11.2,0.1L282.1,97.5z"/>
		<path class="st3" d="M247.1,92.8l4.6,0.2c0.3,5.5-0.9,14.3,1.5,19.2c2.5,5.2,10.6,5.2,15.6,3.4l-0.1-6.4c-7.3,0.7-8-0.2-6.9-16.1
			l6.9-0.2l0-6.6l-6.9-0.2l-0.3-8.8l-9.4,2.4l-0.3,6.3l-4.8,0.3L247.1,92.8z"/>
		<path class="st3" d="M308.2,72c-0.5,7.9-0.2,21.4-0.2,30c0,12.4,1.5,16.5,16.2,13.6l-0.1-6.1c-5.5,0-6.2,0.2-6.5-4.7
			c-0.2-9.7,0.2-23.2-0.2-33L308.2,72z"/>
		<polygon class="st2" points="194.8,113.3 194.9,98.9 182.7,92.8 182.7,113.2 173.2,116.6 173.1,68.5 182.7,63.2 182.7,84.5 
			194.8,89.9 194.8,63.2 205.7,73.8 205.8,116.6 		"/>
	</g>
</g>
</svg>
