<?xml version="1.0" standalone="no"?>
<!DOCTYPE svg PUBLIC "-//W3C//DTD SVG 1.1//EN" "http://www.w3.org/Graphics/SVG/1.1/DTD/svg11.dtd">
<svg xmlns="http://www.w3.org/2000/svg" width="120" height="120" viewBox="0 0 120 120" fill="none">
<g clip-path="url(#clip0_860_14723)">
<mask id="mask0_860_14723" style="mask-type:luminance" maskUnits="userSpaceOnUse" x="-11" y="-8" width="124" height="122">
<path d="M-9.12305 66.3304C-6.26095 94.8512 31.553 113.67 60.1895 113.67C66.9985 113.67 73.7409 112.328 80.0315 109.722C86.3222 107.116 92.0381 103.297 96.8528 98.4814C101.667 93.6662 105.487 87.9496 108.092 81.6581C110.698 75.3667 112.039 68.6235 112.039 61.8137C112.039 33.1788 75.677 -8 47.0457 -8H45.625C17.2684 -8 -16.5376 -7.39329 -9.12305 66.3304Z" fill="white"/>
</mask>
<g mask="url(#mask0_860_14723)">
<path d="M112.039 61.8128C112.039 72.0689 108.998 82.0947 103.301 90.6224C97.6036 99.1501 89.5058 105.797 80.0315 109.721C70.5572 113.646 60.132 114.673 50.0741 112.672C40.0163 110.671 30.7776 105.733 23.5263 98.4805C16.275 91.2283 11.3368 81.9885 9.33614 71.9294C7.33551 61.8703 8.36231 51.4438 12.2867 41.9683C16.2111 32.4929 22.8568 24.3941 31.3834 18.6961C39.91 12.9981 49.9346 9.95679 60.1895 9.95679C73.9409 9.95679 87.129 15.4202 96.8527 25.1451C106.576 34.8699 112.039 48.0597 112.039 61.8128Z" fill="#D4EAE3"/>
<path d="M66.0532 15.7869L60.049 87.986H18.8908L10.543 15.7869H66.0532Z" fill="#F2F0EC"/>
<path d="M60.0489 87.9862C60.0489 89.7649 56.6786 91.3465 51.504 92.3214C50.6693 92.477 49.7826 92.617 48.8545 92.7414C45.7423 93.1397 42.6073 93.3337 39.4697 93.3222C28.0991 93.3222 18.8906 90.9265 18.8906 87.9759C18.8906 85.0253 28.1043 82.6295 39.4697 82.6295C43.0464 82.6117 46.6191 82.87 50.156 83.4022C51.0426 83.5422 51.8877 83.6978 52.681 83.8741C57.1868 84.8749 60.0541 86.3372 60.0541 87.9862" fill="#F2F0EC"/>
<path d="M38.6564 41.0662C41.1672 41.0651 43.6219 41.8089 45.7101 43.2034C47.7982 44.5979 49.4258 46.5804 50.3872 48.9002C51.3485 51.22 51.6003 53.7728 51.1107 56.2358C50.6211 58.6987 49.4121 60.9611 47.6367 62.7368C45.8613 64.5124 43.5992 65.7215 41.1365 66.2112C38.6739 66.7008 36.1213 66.449 33.8018 65.4876C31.4823 64.5261 29.5 62.8982 28.1057 60.8099C26.7114 58.7215 25.9677 56.2665 25.9688 53.7553C25.9701 50.3904 27.3073 47.1636 29.6864 44.7842C32.0655 42.4049 35.2918 41.0675 38.6564 41.0662Z" fill="#006241"/>
<path d="M66.0529 15.7654L60.0487 87.9852C60.0487 89.7639 56.6785 91.3455 51.5039 92.3204L52.1054 87.9852L52.6861 83.8834L52.7483 83.4167L61.8686 17.6063L63.9426 15.7861L66.0529 15.7654Z" fill="#DEDCD4"/>
<path d="M67.2263 15.2989C67.2263 19.0273 56.3378 22.092 42.3384 22.4654C41.3896 22.4654 40.4252 22.5017 39.4504 22.5068C30.9834 22.5068 23.403 21.5216 18.3113 19.9659C14.1634 18.711 11.6953 17.0775 11.6953 15.2989C11.6953 11.3163 24.1392 8.08569 39.4504 8.08569C47.7153 8.08569 55.1349 9.02429 60.2162 10.5177C64.5664 11.7882 67.2055 13.4632 67.2055 15.2989" fill="#1A3C34"/>
<path d="M59.6157 10.5184L41.7276 22.4453C40.7788 22.4453 39.8144 22.4868 38.8344 22.4868C30.3674 22.4868 22.7869 21.5015 17.6953 19.951L38.2952 8.54272L59.6157 10.5184Z" fill="#36675B"/>
<path d="M38.2981 22.9938C53.6268 22.9938 66.0532 19.7667 66.0532 15.7859C66.0532 11.805 53.6268 8.57788 38.2981 8.57788C22.9694 8.57788 10.543 11.805 10.543 15.7859C10.543 19.7667 22.9694 22.9938 38.2981 22.9938Z" stroke="#F0EAE6" stroke-width="4" stroke-miterlimit="10"/>
<path d="M13.9688 21.7865C18.7026 23.2955 25.1579 25.9869 37.747 25.5564C50.3361 25.126 61.8363 22.4451 64.9629 20.3708" stroke="black" stroke-miterlimit="10" stroke-linecap="round"/>
<path d="M49.3832 97.1229C49.1033 99.0623 49.8603 100.322 51.5246 101.349C56.554 104.46 62.0916 105.876 67.8728 106.535C71.9378 106.986 76.0236 107.095 80.1093 107.261C87.6016 107.561 95.068 107.515 102.462 106.109C106.786 105.29 110.939 103.989 114.47 101.204C115.108 100.685 115.585 98.7771 115.227 98.0666C115.14 97.9207 115.001 97.8131 114.838 97.7659C112.987 97.1388 111.172 96.4117 109.399 95.5879C109.128 95.2776 108.765 95.0631 108.362 94.976C106.055 93.3737 103.851 91.6676 102.296 89.2719C102.177 89.0904 102.011 89.1163 101.84 89.1318C101.84 88.774 102.109 88.6133 102.389 88.4318C103.317 87.8769 104.225 87.2961 105.158 86.7517C108.404 84.8641 112.049 83.9203 115.445 82.3906C117.218 81.592 119.038 80.8712 120.562 79.6111C121.294 80.2437 120.355 80.2282 120.205 80.3215C119.686 80.643 119.634 80.8401 120.075 81.3223C121.387 82.7069 125.317 85.1234 126.981 86.0257L129.895 87.5243L115.844 98.3518C115.844 98.3518 115.637 98.3778 115.248 98.0718M50.1299 93.0936C49.4035 93.116 48.683 92.9581 48.0325 92.6342C47.382 92.3103 46.8218 91.8303 46.4019 91.2372C45.3027 90.2571 45.1627 88.8622 45.0071 87.5088C44.9859 87.4218 44.9826 87.3314 44.9974 87.2431C45.0122 87.1548 45.0449 87.0705 45.0934 86.9953C45.142 86.9201 45.2053 86.8555 45.2796 86.8056C45.3539 86.7557 45.4376 86.7215 45.5256 86.705C45.5324 86.7299 45.5458 86.7524 45.5645 86.7701C45.5832 86.7878 45.6064 86.8 45.6316 86.8054C45.6568 86.8107 45.683 86.809 45.7073 86.8005C45.7316 86.7919 45.7531 86.7768 45.7693 86.7568C46.993 85.533 48.5744 84.9782 50.1558 84.4233C51.7372 83.8685 53.3808 83.5521 54.9986 83.0543C52.7068 82.5669 50.4202 82.178 48.1337 81.7942C47.6566 81.7113 47.5789 82.1313 47.4181 82.4165C46.6476 83.7779 46.002 85.2063 45.4893 86.6842C45.2405 86.036 45.6138 85.4864 45.7901 84.9056C46.1893 84.0655 46.5523 83.2099 46.9982 82.3958C47.3144 81.8098 47.3093 81.5246 46.5471 81.5349C46.3241 81.5349 45.9197 81.5764 46.1375 81.0994C49.1551 81.6179 52.1779 82.0846 55.1904 82.6239C64.4404 84.2833 73.6852 85.9842 82.7951 88.297C86.8187 89.3341 90.8474 90.3712 94.5961 92.2173C94.9383 92.3884 95.4568 92.4299 95.4257 93.0159C92.9224 91.6924 90.2671 90.6789 87.5187 89.9978C82.7122 88.5044 77.802 87.4413 72.8867 86.3679C72.1504 86.2124 71.4297 85.9012 70.6468 86.0153C66.863 86.4773 63.2588 87.8942 60.1731 90.1327C57.6829 92.0288 54.6491 93.0741 51.5194 93.1144L50.4202 93.0833M124.731 91.4757C124.342 91.2787 124.031 91.1283 123.725 90.9572C120.272 89.1733 116.985 87.1821 115.31 83.4381C115.092 82.9454 114.838 82.9817 114.413 83.158C113.357 83.6171 112.277 84.0187 111.178 84.3611C110.4 84.5893 110.255 84.8797 110.545 85.6523C112.209 90.0756 115.409 92.9536 119.624 94.8568C119.774 94.9411 119.947 94.9751 120.118 94.9536C120.289 94.9322 120.448 94.8564 120.573 94.7375C121.931 93.6589 123.3 92.5906 124.721 91.4654" fill="#1D3A33"/>
<path d="M110.206 61.6066C112.24 63.4145 113.896 65.6069 115.08 68.0575C115.199 68.3012 115.318 68.5761 115.598 68.6383C115.643 69.0528 115.781 69.4518 116.003 69.805C117.366 71.8793 117.765 74.078 116.837 76.4374C115.844 77.8516 114.369 78.8547 112.689 79.2584C100.383 82.0783 87.7401 83.1484 75.1347 82.4372C67.8078 81.9759 60.5274 80.9513 53.3578 79.3725C51.7158 79.0861 50.227 78.2306 49.1528 76.956C48.5511 75.9635 48.2439 74.8204 48.2668 73.6599C48.2898 72.4994 48.642 71.3694 49.2824 70.4014C49.6949 69.7533 50.0588 69.0756 50.3713 68.3738C51.9268 64.6091 54.9652 62.5245 58.5376 60.9947C64.2411 58.5575 70.1986 57.1833 76.2339 55.9906C80.1381 55.218 84.0684 54.6164 88.0089 54.1394C93.0954 53.5326 97.8604 54.7305 102.413 56.9033C105.175 58.1714 107.784 59.7493 110.19 61.6066M95.5116 62.1252L92.608 62.1563C92.3695 62.1148 92.131 62.0681 91.8925 62.037C90.2221 61.9106 88.576 61.5619 86.9979 60.9999C84.7113 60.0924 84.0891 58.9257 84.5868 56.5455C84.5836 56.4541 84.5624 56.3642 84.5246 56.281C84.2809 56.281 84.2291 56.4677 84.1617 56.6284C83.498 58.2515 84.058 59.802 85.7535 60.7769C87.8586 62.0163 90.197 62.3326 92.5924 62.4156H95.5168C97.4196 62.343 99.1877 61.897 100.541 60.445C100.91 60.1245 101.148 59.6785 101.208 59.1931C101.269 58.7077 101.147 58.2172 100.868 57.8159C101.049 59.8643 99.8929 60.8028 98.3529 61.4459C97.43 61.7614 96.4783 61.9854 95.5116 62.1148M107.567 66.4863C105.932 67.699 104.022 68.4866 102.008 68.7783C96.7871 69.7221 91.5243 69.7013 86.2616 69.3487C83.5654 69.1672 80.9418 68.5761 78.7019 66.8907C78.593 66.8078 78.4582 66.7611 78.3545 66.9426C78.6083 67.3238 78.9691 67.6215 79.3915 67.7982C81.6988 69.1828 84.2654 69.6236 86.8942 69.8102C90.3054 70.041 93.7284 70.041 97.1396 69.8102C99.6521 69.7145 102.142 69.298 104.549 68.5709C105.742 68.1768 106.918 67.736 107.774 66.7352C108.858 65.6566 109.153 64.692 108.609 63.6757C108.62 64.7206 108.251 65.734 107.572 66.5277M70.2401 71.3504C66.9943 68.239 66.1854 64.5468 67.5439 60.2843C65.6928 63.2297 66.3824 68.7835 70.069 71.563C71.7404 73.1142 73.7607 74.2401 75.9591 74.8454C85.3088 77.7923 95.3014 78.0333 104.782 75.5403C107.25 74.8921 109.656 74.0417 111.72 72.429C112.14 72.1075 112.58 71.7756 112.503 71.117C111.631 72.1668 110.504 72.9755 109.231 73.4661C105.274 75.2204 101.042 76.2732 96.7248 76.5774C92.7212 76.9287 88.6913 76.8435 84.7061 76.3233C79.5471 75.644 74.4917 74.6484 70.2401 71.3348M56.1525 64.7128C54.8303 69.8984 59.922 78.5376 64.5003 78.8487C58.1124 76.2559 56.754 70.7073 56.1525 64.7128ZM77.9605 66.3566C77.442 65.4699 76.8768 64.6506 76.6642 63.6446C76.456 62.6903 76.4261 61.7058 76.5761 60.7406C76.7316 59.7917 77.1257 58.8945 77.219 57.9404C75.311 60.8443 76.0005 65.2728 77.9605 66.3566Z" fill="#D1A04A"/>
<path d="M49.153 76.9565C50.2421 78.2457 51.7551 79.1043 53.4202 79.3782C60.5898 80.957 67.8703 81.9816 75.1971 82.4429C87.8025 83.1541 100.445 82.084 112.752 79.2641C114.432 78.8604 115.907 77.8573 116.9 76.4431C118.258 77.3324 119.495 78.3939 120.581 79.6012C119.057 80.8613 117.237 81.5821 115.464 82.3806C112.067 83.9363 108.422 84.8542 105.177 86.7417C104.243 87.2603 103.336 87.867 102.408 88.4219C102.128 88.5878 101.889 88.7641 101.858 89.1219C101.833 89.1883 101.789 89.2454 101.73 89.2854C101.672 89.3253 101.602 89.3461 101.532 89.3449C101.06 89.3449 100.655 89.3864 100.619 89.9827L100.36 90.1953H100.318C100.012 90.1953 99.7997 90.2679 99.7686 90.6206C99.3746 90.5894 99.1101 90.7087 99.1361 91.165L98.6746 91.6836L98.1561 92.0881C97.6946 92.0881 97.6376 92.3888 97.6376 92.7518C97.5252 93.0045 97.3318 93.2125 97.088 93.343L96.1029 93.4311C96.0562 93.0422 95.8384 92.9126 95.4703 93.0059L95.4133 93.0526C95.4444 92.4666 94.9259 92.4251 94.5837 92.254C90.8349 90.4028 86.8062 89.3553 82.7827 88.3337C73.6727 86.0209 64.4279 84.32 55.1779 82.6607C52.1655 82.1421 49.1426 81.6235 46.125 81.1361C46.5865 79.3574 47.8671 78.1751 49.1426 76.9876" fill="#116242"/>
<path d="M109.401 95.5762C111.173 96.3999 112.989 97.127 114.84 97.7541C115.003 97.8014 115.142 97.9089 115.229 98.0549C115.587 98.7653 115.11 100.689 114.472 101.192C110.941 103.977 106.788 105.278 102.464 106.098C95.0699 107.503 87.6035 107.55 80.1112 107.249C76.0255 107.083 71.9397 106.974 67.8747 106.523C62.0935 105.875 56.5559 104.449 51.5265 101.337C49.8622 100.3 49.1052 99.0505 49.3851 97.1163C49.5614 95.908 49.6548 94.6842 49.7222 93.4864C49.7585 92.8745 50.111 93.0871 50.417 93.113C50.4561 93.8142 50.7666 94.4726 51.2828 94.9487C52.4132 96.1206 53.8753 96.5562 55.379 96.8881C59.8795 97.8837 64.4734 98.0808 69.0569 98.3245C72.396 98.506 75.7507 98.4749 79.095 98.506C86.2036 98.5734 93.3225 98.8949 100.421 97.9875C102.982 97.7322 105.512 97.2286 107.975 96.4836C108.494 96.3073 109.178 96.3021 109.401 95.6021" fill="#D1A04A"/>
<path d="M98.148 92.0658L98.6665 91.6613C99.2991 91.9361 99.9368 92.1799 100.559 92.4962C102.493 93.414 104.541 94.1141 106.262 95.4779C106.058 95.6067 105.838 95.7111 105.609 95.789C102.327 96.5481 98.9755 96.9703 95.6074 97.0491C87.8714 97.0802 80.1355 97.2929 72.4047 96.7069C69.19 96.4632 65.9598 96.3231 62.7503 95.9757C62.7503 95.7683 62.7503 95.5609 62.7503 95.3534C62.2733 92.1747 64.2539 89.7063 67.4841 89.5093C68.3482 89.4686 69.2138 89.479 70.0766 89.5404C72.1264 89.7481 74.195 89.4211 76.0808 88.5914C76.7171 88.292 77.4184 88.1569 78.1204 88.1986C78.8224 88.2402 79.5027 88.4573 80.0992 88.83C82.422 90.0901 84.9523 90.2197 87.5188 89.9967C90.2662 90.6831 92.9198 91.7018 95.4207 93.0303L95.4778 92.9836C95.5204 93.1151 95.6059 93.2285 95.7206 93.3056C95.8353 93.3827 95.9725 93.419 96.1103 93.4088C96.494 94.0674 96.7896 93.6111 97.0955 93.3207C97.3393 93.1902 97.5326 92.9822 97.6451 92.7295L98.1636 92.0658" fill="#D2A14B"/>
<path d="M87.5135 89.9978C84.9211 90.2208 82.4167 90.0911 80.0939 88.831C79.4984 88.4584 78.8189 88.2413 78.1177 88.1996C77.4165 88.1579 76.7161 88.293 76.0807 88.5925C74.187 89.4267 72.1089 89.7537 70.0506 89.5415C69.1878 89.4801 68.3221 89.4697 67.4581 89.5104C64.2279 89.7074 62.2731 92.1758 62.7242 95.3545C62.7553 95.5619 62.7242 95.7694 62.7242 95.9768C60.2977 95.7175 57.8763 95.4582 55.4653 95.1938C53.9098 95.0123 52.3025 94.836 51.5195 93.1195C54.6477 93.0804 57.6802 92.0349 60.168 90.1378C63.2556 87.8993 66.8615 86.4825 70.6469 86.0204C71.4298 85.9064 72.1505 86.2175 72.8868 86.3731C77.8021 87.4102 82.7382 88.4888 87.5187 90.003" fill="#F2F1EB"/>
<path d="M51.5131 93.1357C52.2961 94.8365 53.893 95.0128 55.4589 95.2099C57.8803 95.5003 60.3016 95.7285 62.7178 95.9929C65.9273 96.3404 69.1576 96.4804 72.3722 96.7241C80.103 97.3101 87.839 97.0975 95.575 97.0663C98.9431 96.9875 102.294 96.5653 105.577 95.8062C105.806 95.7283 106.025 95.6239 106.23 95.4951L108.33 94.9765C108.732 95.0636 109.096 95.2782 109.367 95.5884C109.144 96.2885 108.46 96.2937 107.941 96.47C105.476 97.2154 102.944 97.7191 100.381 97.9738C93.2884 98.8969 86.1694 98.5754 79.0608 98.4924C75.7165 98.4613 72.3619 98.4924 69.0228 98.3109C64.4392 98.0672 59.8454 97.8701 55.3448 96.8745C53.836 96.5426 52.379 96.107 51.2487 94.9351C50.7325 94.459 50.4219 93.8006 50.3828 93.0994L51.482 93.1305" fill="#AF813B"/>
<path d="M124.732 91.4754C123.301 92.6007 121.932 93.6689 120.584 94.7475C120.46 94.8664 120.3 94.9422 120.13 94.9637C119.959 94.9851 119.786 94.9512 119.635 94.8668C115.42 92.9637 112.221 90.0857 110.557 85.6623C110.266 84.8949 110.411 84.5993 111.189 84.3711C112.288 84.0287 113.369 83.6271 114.425 83.1681C114.85 82.9918 115.104 82.9555 115.322 83.4481C117.012 87.1921 120.284 89.1834 123.737 90.9672C124.043 91.128 124.354 91.2783 124.743 91.4858" fill="#D1E7E0"/>
<path d="M108.34 94.9652L106.241 95.4838C104.54 94.12 102.492 93.4095 100.537 92.5021C99.9148 92.2117 99.2771 91.9472 98.6445 91.6672L99.106 91.1486L99.7386 90.6041L100.288 90.1789H100.33L100.589 89.9663C100.94 89.8299 101.253 89.6112 101.501 89.3285C101.572 89.3297 101.642 89.3089 101.7 89.269C101.759 89.229 101.803 89.1719 101.828 89.1055C101.999 89.1055 102.165 89.064 102.284 89.2507C103.84 91.6464 106.043 93.3525 108.351 94.9549" fill="#F2F1EB"/>
<path d="M45.4922 86.6836C45.994 85.2013 46.6291 83.7677 47.3899 82.4003C47.5506 82.115 47.6284 81.695 48.1054 81.778C50.392 82.1617 52.6785 82.5506 54.9703 83.0381C53.3526 83.5566 51.7038 83.8574 50.1275 84.4071C48.5513 84.9568 46.9647 85.5168 45.7411 86.7406C45.7248 86.7606 45.7033 86.7757 45.679 86.7842C45.6548 86.7928 45.6286 86.7945 45.6034 86.7891C45.5782 86.7838 45.555 86.7716 45.5363 86.7539C45.5176 86.7361 45.5041 86.7136 45.4974 86.6887" fill="#CEE3DC"/>
<path d="M70.2688 71.3347C74.5204 74.6483 79.6017 75.644 84.7348 76.3233C88.72 76.8434 92.7499 76.9286 96.7536 76.5774C101.071 76.2732 105.303 75.2204 109.26 73.466C110.533 72.9754 111.659 72.1667 112.531 71.1169C112.609 71.7755 112.168 72.1074 111.748 72.4289C109.674 74.0157 107.279 74.8661 104.811 75.5403C95.3301 78.0332 85.3375 77.7923 75.9878 74.8454C73.7894 74.24 71.7691 73.1141 70.0977 71.5629L70.2688 71.3503" fill="#3B4B3A"/>
<path d="M107.763 66.7201C106.908 67.7209 105.731 68.1617 104.533 68.5558C102.128 69.2834 99.6397 69.6999 97.1289 69.7952C93.7176 70.0259 90.2947 70.0259 86.8834 69.7952C84.2546 69.6085 81.6984 69.1677 79.3807 67.7832C78.9594 67.6046 78.5991 67.3073 78.3438 66.9275C78.4474 66.746 78.5823 66.7927 78.6911 66.8705C80.9259 68.561 83.5546 69.1522 86.2508 69.3337C91.5136 69.6863 96.7763 69.707 101.998 68.7632C104.01 68.4796 105.92 67.699 107.556 66.4919L107.737 66.7046" fill="#3B4B3A"/>
<path d="M56.1502 64.7124C56.7517 70.707 58.1101 76.24 64.498 78.8483C59.9197 78.5372 54.8281 69.9032 56.1502 64.7124Z" fill="#3B4B3A"/>
<path d="M92.6088 62.4351C90.2133 62.3677 87.8749 62.0358 85.7698 60.7965C84.0743 59.8008 83.5143 58.2503 84.178 56.648C84.2454 56.4872 84.2973 56.3161 84.541 56.3005C84.5788 56.3838 84.5999 56.4736 84.6032 56.565C84.0847 58.9608 84.7276 60.112 87.0142 61.0194C88.5923 61.5814 90.2384 61.9302 91.9088 62.0566C92.1473 62.0877 92.3858 62.1343 92.6243 62.1758V62.4507" fill="#3B4B3A"/>
<path d="M70.0975 71.548C66.411 68.7685 65.7214 63.2147 67.5724 60.2693C66.214 64.5318 67.0228 68.2447 70.2686 71.3354L70.0975 71.548Z" fill="#3B4B3A"/>
<path d="M77.9558 66.3554C75.9959 65.2716 75.3063 60.8431 77.2143 57.9392C77.121 58.8934 76.727 59.7905 76.5714 60.7394C76.4215 61.7046 76.4513 62.6891 76.6595 63.6434C76.8721 64.6494 77.4632 65.4687 77.9558 66.3554Z" fill="#3B4B3A"/>
<path d="M95.5234 62.1404C96.4902 62.011 97.4419 61.787 98.3648 61.4715C99.9203 60.8181 101.061 59.8795 100.88 57.8416C101.159 58.2428 101.281 58.7333 101.22 59.2188C101.16 59.7042 100.922 60.1501 100.553 60.4707C99.1996 61.9174 97.4419 62.3686 95.5286 62.4412V62.1508" fill="#3B4B3A"/>
<path d="M107.578 66.5117C108.258 65.718 108.626 64.7046 108.615 63.6597C109.134 64.6968 108.864 65.6406 107.78 66.7192L107.599 66.5117" fill="#3B4B3A"/>
<path d="M95.5259 62.141V62.4366H92.6016V62.1617L95.5051 62.1306" fill="#1D3A33"/>
<path d="M101.487 89.3383C101.238 89.621 100.925 89.8398 100.574 89.9762C100.611 89.3798 101.015 89.3124 101.487 89.3383Z" fill="#1D3A33"/>
<path d="M97.0906 93.322C96.7847 93.6124 96.4892 94.0687 96.1055 93.4102L97.0906 93.322Z" fill="#1D3A33"/>
<path d="M99.7615 90.5981L99.1289 91.1426C99.1289 90.6863 99.3674 90.567 99.7615 90.5981Z" fill="#1D3A33"/>
<path d="M98.1513 92.0662L97.6328 92.73C97.6328 92.367 97.6795 92.061 98.1513 92.0662Z" fill="#1D3A33"/>
<path d="M96.1091 93.3933C95.9713 93.4036 95.834 93.3672 95.7193 93.2901C95.6046 93.213 95.5192 93.0996 95.4766 92.9681C95.8447 92.88 96.0625 93.0044 96.1091 93.3933Z" fill="#1D3A33"/>
<path d="M100.296 90.1889L99.7461 90.6142C99.7461 90.2615 99.9898 90.1734 100.296 90.1889Z" fill="#1D3A33"/>
</g>
<path d="M98.6355 31.846L92.792 26.0899L85.5123 29.8702L89.1781 22.5326L83.3398 16.7818L91.4439 18.0004L95.1149 10.668L96.4578 18.7575L104.567 19.9761L97.2874 23.7564L98.6355 31.846Z" fill="#D2A04A"/>
<path d="M94.3403 45.9147L89.8553 43.4257L86.1066 46.9208L87.0866 41.8907L82.6016 39.4016L87.688 38.7794L88.668 33.7441L90.8353 38.3904L95.9217 37.7682L92.173 41.2633L94.3403 45.9147Z" fill="#D2A04A"/>
<path d="M76.6628 31.4217L75.408 29.5082L73.1992 30.1149L74.6303 28.3259L73.3755 26.4124L75.5169 27.2213L76.9479 25.4375L76.8391 27.7243L78.9805 28.5333L76.7717 29.1348L76.6628 31.4217Z" fill="#D2A04A"/>
</g>
<defs>
<clipPath id="clip0_860_14723">
<rect width="104" height="109" fill="white" transform="translate(8 5)"/>
</clipPath>
</defs>
</svg>