<?xml version="1.0" standalone="no"?>
<!DOCTYPE svg PUBLIC "-//W3C//DTD SVG 1.1//EN" "http://www.w3.org/Graphics/SVG/1.1/DTD/svg11.dtd">
<svg xmlns="http://www.w3.org/2000/svg" width="120" height="120" viewBox="0 0 120 120" fill="none">
<mask id="mask0_860_14710" style="mask-type:luminance" maskUnits="userSpaceOnUse" x="7" y="6" width="105" height="107">
<path d="M50.7521 6C22.1782 6 6.99923 23.5 7 64.4967C7.00028 79.3795 9.79603 82.8837 20.9607 94.9707C32.5289 107.476 46.2028 112.557 59.8507 112.557C66.6448 112.557 73.3724 111.221 79.6493 108.626C85.9262 106.032 91.6296 102.228 96.4337 97.4339C101.238 92.6395 105.049 86.9476 107.649 80.6833C110.249 74.419 111.587 67.705 111.587 60.9246C113.5 28.4983 79.326 6 50.7521 6Z" fill="white"/>
</mask>
<g mask="url(#mask0_860_14710)">
<path d="M111.586 60.9247C111.586 71.1366 108.551 81.1191 102.866 89.61C97.1816 98.1008 89.1016 104.719 79.648 108.627C70.1945 112.534 59.7921 113.557 49.7562 111.565C39.7204 109.572 30.5019 104.655 23.2665 97.4341C16.031 90.2132 11.1037 81.0133 9.1074 70.9977C7.11115 60.982 8.1357 50.6005 12.0515 41.166C15.9673 31.7315 22.5984 23.6677 31.1064 17.9943C39.6144 12.3209 49.617 9.29272 59.8495 9.29272C66.6435 9.29272 73.3711 10.6282 79.648 13.223C85.9249 15.8177 91.6283 19.6209 96.4324 24.4154C101.237 29.2099 105.047 34.9017 107.647 41.166C110.247 47.4303 111.586 54.1443 111.586 60.9247Z" fill="#D4EAE3"/>
<path d="M86.853 72.1414L77.0994 77.2605C76.7057 76.8567 77.0565 76.575 77.1885 76.2831C78.7809 72.9302 80.3371 69.5562 82.0152 66.2086C82.1468 66.0363 82.2405 65.8385 82.29 65.6279C82.3395 65.4174 82.3438 65.1988 82.3027 64.9865C82.2615 64.7741 82.1758 64.5727 82.0511 64.3952C81.9264 64.2178 81.7654 64.0683 81.5787 63.9565C78.9171 61.5888 76.3347 59.1163 73.7423 56.6578C73.3853 56.322 72.8798 56.0805 72.6998 55.3661C76.7301 55.8682 80.6842 56.304 84.6222 56.8934C85.8752 57.0859 86.4743 56.8268 87.0071 55.6288C88.635 52.0472 90.4078 48.4957 92.3198 44.5052C92.8849 47.3468 93.3734 49.7707 93.8452 52.2C94.1537 53.8081 94.4924 55.3741 94.7228 56.9781C94.728 57.1688 94.7715 57.3567 94.8507 57.5307C94.93 57.7046 95.0435 57.8611 95.1845 57.9911C95.3255 58.121 95.4913 58.2218 95.672 58.2875C95.8528 58.3531 96.0449 58.3824 96.2371 58.3735C100.011 58.805 103.773 59.3127 107.532 59.7887C107.9 59.8159 108.245 59.9774 108.5 60.2419L102.793 63.384C101.132 64.2917 99.4773 65.2158 97.7792 66.063C97.5862 66.1314 97.4089 66.2369 97.2572 66.3735C97.1056 66.5101 96.9827 66.675 96.8956 66.8589C96.8084 67.0427 96.7588 67.2418 96.7495 67.4448C96.7403 67.6478 96.7715 67.8506 96.8415 68.0416C97.6474 71.9659 98.3704 75.9164 98.8515 80.0561L92.0807 73.9512C91.5719 73.4282 91.0819 72.8847 90.5529 72.3899C88.8169 70.7497 88.8158 70.7573 86.8506 72.1566" fill="#D09F4A"/>
<path d="M46.7078 62.3311L33.2589 77.8818C32.2951 77.4467 32.7115 76.7176 32.74 76.1196C33.1996 69.1989 33.5818 62.2659 34.1943 55.2961C34.3046 54.9066 34.3312 54.4984 34.2722 54.0982C34.2132 53.698 34.07 53.3146 33.8519 52.9729C33.6338 52.6312 33.3456 52.3389 33.0061 52.1149C32.6666 51.8909 32.2834 51.7402 31.8812 51.6727C25.6148 49.3627 19.4142 46.8162 13.2057 44.301C12.3526 43.9594 11.3061 43.883 10.5 42.7619C17.8624 40.8927 25.0463 38.9599 32.3082 37.3054C34.6222 36.7876 35.4865 35.9287 35.5878 33.4806C35.9516 26.1376 36.5884 18.7483 37.1646 10.5C40.1081 15.062 42.6302 18.9493 45.127 22.857C46.7732 25.4465 48.4427 27.9421 49.9501 30.5775C50.0906 30.9061 50.2959 31.2035 50.5539 31.4524C50.8119 31.7012 51.1173 31.8965 51.4525 32.0267C51.7876 32.1569 52.1456 32.2195 52.5056 32.2108C52.8655 32.2021 53.2201 32.1222 53.5486 31.9759C60.4156 30.1583 67.3145 28.4816 74.1865 26.7516C74.846 26.5485 75.5579 26.5946 76.1848 26.8813L68.4163 36.2361C66.1519 38.9464 63.9082 41.6816 61.5363 44.3124C61.2476 44.5628 61.0116 44.8672 60.8418 45.2081C60.6721 45.5491 60.5719 45.9199 60.547 46.2993C60.5221 46.6786 60.5731 47.0591 60.6969 47.4187C60.8207 47.7784 61.015 48.1102 61.2686 48.395C65.3779 54.678 69.3612 61.0631 73.0538 67.9421L57.0566 61.9233C55.81 61.3592 54.5822 60.7466 53.32 60.2452C49.1668 58.5715 49.17 58.5856 46.7142 62.3592" fill="#D09F4A"/>
<path d="M36.3984 69.9744C36.3984 66.6748 39.0909 64 42.4122 64H78.4946C81.8159 64 84.5083 66.6748 84.5083 69.9744V93.8721C84.5083 97.1716 81.8159 99.8465 78.4946 99.8465H42.4122C39.0909 99.8465 36.3984 97.1716 36.3984 93.8721V69.9744Z" fill="#006241"/>
<path d="M61.9249 89.3912C65.0118 89.3912 67.327 87.6763 67.327 84.7142C67.327 81.9703 65.2048 81.0661 62.6002 80.1931C60.4779 79.5071 58.6772 78.8211 58.6772 77.0127C58.6772 75.5472 59.9635 74.5806 61.8928 74.5806C63.6613 74.5806 64.8511 75.5472 65.7193 76.545L66.909 75.3289C66.0087 74.0817 64.5295 72.9904 61.7642 72.9904C59.031 72.9904 56.6836 74.5182 56.6836 77.1998C56.6836 80.0683 58.9988 81.0349 61.3783 81.8144C63.9186 82.6251 65.3012 83.2176 65.3012 84.9948C65.3012 86.7409 63.8864 87.7387 61.8606 87.7387C59.6097 87.7387 58.002 86.6162 57.0373 85.2131L55.7833 86.585C56.8444 87.8322 58.4522 89.3912 61.9249 89.3912Z" fill="white"/>
<path d="M75.4877 88.3598C75.4877 88.8979 75.0378 89.3341 74.4829 89.3341C73.9279 89.3341 73.478 88.8979 73.478 88.3598C73.478 87.8216 73.9279 87.3854 74.4829 87.3854C75.0378 87.3854 75.4877 87.8216 75.4877 88.3598Z" fill="white"/>
<path fill-rule="evenodd" clip-rule="evenodd" d="M74.1064 72.9903C74.4794 73.0983 74.6915 73.479 74.5802 73.8406L70.3731 88.8748C70.2617 89.2364 69.8692 89.4421 69.4962 89.3341C69.1233 89.2262 68.9112 88.8455 69.0225 88.4839L73.2296 73.4497C73.3409 73.0881 73.7335 72.8824 74.1064 72.9903Z" fill="white"/>
<path d="M51.7553 76.3165C51.7553 75.9384 51.4401 75.6319 51.0513 75.6319C50.6625 75.6319 50.3473 75.9384 50.3473 76.3165V80.4239H46.1231C45.7342 80.4239 45.419 80.7304 45.419 81.1085C45.419 81.4866 45.7342 81.793 46.1231 81.793H50.3473V85.9005C50.3473 86.2785 50.6625 86.585 51.0513 86.585C51.4401 86.585 51.7553 86.2785 51.7553 85.9005V81.793H55.9795C56.3684 81.793 56.6836 81.4866 56.6836 81.1085C56.6836 80.7304 56.3684 80.4239 55.9795 80.4239H51.7553V76.3165Z" fill="white"/>
</g>
</svg>