<?xml version="1.0" standalone="no"?>
<!DOCTYPE svg PUBLIC "-//W3C//DTD SVG 1.1//EN" "http://www.w3.org/Graphics/SVG/1.1/DTD/svg11.dtd">
<svg xmlns="http://www.w3.org/2000/svg" width="120" height="120" viewBox="0 0 120 120" fill="none">
<g clip-path="url(#clip0_860_14772)">
<mask id="mask0_860_14772" style="mask-type:luminance" maskUnits="userSpaceOnUse" x="6" y="1" width="106" height="116">
<path d="M57.7137 1.99989C34.5 -3.4999 6.00008 23.1972 6 78.7811C7.4818 92.7324 10.7695 89.0385 21.8727 100.426C33.3772 112.208 46.9758 116.995 60.5487 116.995C67.3054 116.995 73.9959 115.736 80.2382 113.292C86.4806 110.847 92.1526 107.264 96.9303 102.747C101.708 98.2298 105.498 92.8672 108.084 86.9654C110.669 81.0635 112 74.738 112 68.3498C112 41.4882 86.1302 1.99989 57.7137 1.99989Z" fill="white"/>
</mask>
<g mask="url(#mask0_860_14772)">
<path d="M112.086 65.4247C112.086 75.6366 109.051 85.6191 103.366 94.11C97.6816 102.601 89.6016 109.219 80.148 113.127C70.6945 117.034 60.2921 118.057 50.2562 116.065C40.2204 114.072 31.0019 109.155 23.7665 101.934C16.531 94.7132 11.6037 85.5133 9.6074 75.4977C7.61115 65.482 8.6357 55.1005 12.5515 45.666C16.4673 36.2315 23.0984 28.1677 31.6064 22.4943C40.1144 16.8209 50.117 13.7927 60.3495 13.7927C67.1435 13.7927 73.8711 15.1282 80.148 17.723C86.4249 20.3177 92.1283 24.1209 96.9324 28.9154C101.737 33.7099 105.547 39.4017 108.147 45.666C110.747 51.9303 112.086 58.6443 112.086 65.4247Z" fill="#D4EAE3"/>
<path d="M81.2776 136.181C77.206 140.183 72.1721 142.181 66.657 143.214C57.7118 144.892 49.5841 142.697 41.9582 138.081C41.4462 137.72 40.962 137.322 40.5096 136.889C39.6869 134.452 39.5421 131.885 39.2006 129.366C38.1659 121.807 37.2191 114.243 36.2361 106.684C35.8567 103.889 35.4774 101.096 35.098 98.304C34.7048 95.3764 34.3219 92.4437 33.9184 89.5265C33.5459 86.7694 33.1423 84.0122 32.7698 81.2654C32.4387 78.7819 32.1904 76.2829 31.7972 73.8149C31.3574 71.0268 31.2798 68.1819 30.4883 65.466C29.2983 61.3354 30.571 58.1394 33.877 55.6301C34.4564 55.1861 34.4978 54.9434 34.1408 54.3238C32.925 52.2172 33.4838 49.2277 35.2894 47.0076C37.0628 44.7726 39.5339 43.1933 42.31 42.5207C42.4806 42.5047 42.6461 42.4537 42.7961 42.3709C42.9461 42.2881 43.0774 42.1754 43.1817 42.0397C43.2861 41.9041 43.3614 41.7484 43.4027 41.5824C43.4441 41.4164 43.4508 41.2437 43.4223 41.075C43.4512 39.7186 43.9254 38.4091 44.7722 37.3476C45.619 36.2862 46.7914 35.5314 48.1096 35.1993C48.1613 35.8602 48.2389 36.5159 48.27 37.1768C48.4873 42.4175 48.7201 47.6581 48.896 52.8988C48.9322 53.9831 49.6048 54.0553 50.3653 54.0657C51.5345 54.0657 52.0208 53.6939 52.0105 52.8265C52.0105 51.4634 51.9588 50.1003 51.9225 48.7372L51.5966 34.3784C52.89 34.0066 54.2352 34.1564 55.5493 34.0066C57.9188 33.7433 60.1641 33.3302 62.0577 31.7245C63.6822 30.3407 64.6445 28.704 64.391 26.5303C64.3289 25.9262 64.5099 25.9004 64.9083 26.1586C67.4123 27.7075 70.025 29.0654 72.0996 31.2082C73.7293 32.8862 74.9089 34.7759 74.971 37.1923C74.971 37.7086 75.2711 37.8635 75.7367 37.9978C77.0767 38.3799 78.4373 38.6948 79.6324 39.5054C81.8726 41.0544 82.39 43.2797 82.271 45.7426C82.2547 46.8674 81.9596 47.9707 81.4122 48.9541C81.0034 49.6253 81.3087 49.7441 81.8519 49.9558C83.5182 50.6085 85.0853 51.4895 86.5082 52.5735C87.3457 53.1758 88.0476 53.9463 88.5688 54.8355C89.0901 55.7247 89.4191 56.713 89.5347 57.7367C89.8193 60.1118 90.5694 62.4868 89.7313 64.8568C88.6293 67.9547 88.6966 71.2075 88.2568 74.3829C87.6929 78.343 87.2635 82.3187 86.8082 86.2944C86.4823 89.2012 86.234 92.1133 85.9132 95.0202C85.5924 97.9271 85.2354 100.7 84.9147 103.519C84.7957 104.551 84.744 105.584 84.656 106.643C84.2473 110.21 83.8231 113.778 83.4247 117.346C82.7625 123.311 82.1054 129.276 81.4535 135.242C81.4017 135.549 81.3344 135.854 81.2518 136.155M44.664 72.5964C44.0535 72.4828 43.4378 72.3899 42.8325 72.2453C39.63 71.4915 36.4224 70.7376 33.52 69.0389C33.2975 68.9099 33.0751 68.7963 32.9043 69.0957C32.7336 69.3952 32.9457 69.5036 33.1165 69.6121C33.5238 69.8739 33.9472 70.1101 34.384 70.3194C36.592 71.3101 38.8936 72.078 41.2546 72.6119C45.8071 73.6443 50.438 74.2954 55.0991 74.5584C59.864 74.925 64.6393 75.0231 69.3473 74.2589C75.6006 73.2058 81.6453 71.163 87.2532 68.2077C87.4756 68.0889 87.9826 68.0528 87.7705 67.5881C87.5584 67.1234 87.2066 67.4745 86.9686 67.5881C85.4165 68.3884 83.8179 69.137 82.1778 69.8134C81.7898 68.7808 81.2 69.5914 80.7603 69.7102C79.6169 70.0251 79.6273 70.0716 79.3789 70.402C79.829 70.5518 80.2377 69.8857 80.6982 70.3401C74.464 72.7978 68.0539 74.3106 61.3023 74.0576C61.3489 73.7529 61.5506 73.6807 61.8197 73.6703C63.766 73.5741 65.7046 73.3586 67.6245 73.0249C69.0152 72.8903 70.3842 72.5868 71.7013 72.1214C61.7886 73.8097 51.9484 73.123 42.1134 71.3985C42.5369 71.6979 43.0149 71.9118 43.5206 72.0284C43.9034 72.173 44.4932 71.9768 44.6484 72.5861M60.9453 85.4373C56.8001 85.4873 52.8446 87.1786 49.9489 90.1391C47.0532 93.0996 45.4546 97.0869 45.5047 101.224C45.5548 105.361 47.2495 109.308 50.216 112.198C53.1825 115.088 57.1778 116.683 61.323 116.633C70.0716 116.442 76.9318 109.183 76.6835 100.798C76.6021 96.6894 74.907 92.7774 71.9632 89.9043C69.0195 87.0312 65.0628 85.427 60.9453 85.4373ZM66.0672 44.1058C68.2298 44.0697 70.3251 44.0542 72.2755 43.0732C72.5342 42.939 73.0257 42.9286 72.8395 42.5104C72.6946 42.1903 72.3221 42.34 72.0065 42.4794C70.4601 43.112 68.8042 43.4348 67.133 43.4295C64.6652 43.5379 62.2801 43.0939 59.8899 42.6911C58.3792 42.4381 56.822 42.3194 55.3578 42.9854C54.953 43.1342 54.5948 43.3871 54.3195 43.7186C54.0442 44.05 53.8616 44.4482 53.7901 44.8728C53.7187 45.2974 53.761 45.7332 53.9127 46.1362C54.0645 46.5393 54.3203 46.8951 54.6542 47.1676C55.2582 47.7269 55.9619 48.1683 56.7288 48.4688C61.6127 50.4824 66.8174 50.9677 71.9807 51.6235C73.6088 51.7776 75.1819 52.2927 76.5852 53.1311C77.6458 53.8023 77.7441 54.3703 77.0198 55.3513C76.3133 56.3112 75.4366 57.1337 74.4329 57.778C69.2283 61.1186 63.4131 62.4249 57.36 62.7089C53.211 62.8447 49.0723 62.2182 45.1503 60.8604C43.8051 60.4267 42.46 59.9775 41.12 59.5283C40.8045 59.4251 40.4268 59.1204 40.256 59.6316C40.0853 60.1427 40.5199 60.1479 40.8769 60.1944C41.2478 60.2781 41.6111 60.3921 41.9633 60.5352C47.7061 62.6417 53.5729 63.8448 59.7502 63.1994C63.9652 62.7795 68.0865 61.6937 71.96 59.9827C73.9595 59.1289 75.7482 57.8496 77.2008 56.2342C78.7012 54.52 78.4891 53.317 76.5127 52.2327C74.7986 51.3853 72.9326 50.8868 71.0235 50.7664C67.5636 50.4544 64.1323 49.8814 60.7591 49.0522C58.9173 48.5669 57.0651 48.0763 55.4716 46.9869C54.8456 46.548 54.3541 46.0162 54.4369 45.1953C54.481 44.7623 54.6656 44.3555 54.9626 44.0368C55.2595 43.7181 55.6526 43.5048 56.0821 43.4295C57.2053 43.1529 58.3745 43.1177 59.5122 43.3262C61.7162 43.6721 63.8839 44.2453 66.0672 44.1213M78.6287 70.3969L72.3583 71.8994C72.3583 71.9923 72.3997 72.0904 72.4256 72.1833C74.5468 71.8116 76.6628 71.4037 78.6339 70.3969" fill="#FDFDFD"/>
<path d="M47.5823 20.923L41.6947 25.3014C41.3947 25.0743 41.5964 24.8522 41.6533 24.6457C42.3569 22.2655 43.0347 19.8749 43.7952 17.4895C43.8641 17.3621 43.9054 17.2217 43.9164 17.0774C43.9274 16.933 43.9079 16.788 43.8591 16.6517C43.8103 16.5154 43.7334 16.3908 43.6332 16.2861C43.5331 16.1814 43.412 16.0988 43.2779 16.0438C41.286 14.7479 39.3356 13.3744 37.3799 12.0114C37.1109 11.8255 36.7539 11.7171 36.5625 11.2627C39.2631 11.1852 41.9068 11.0717 44.5557 11.0613C45.399 11.0613 45.7664 10.829 45.994 9.98222C46.6976 7.44709 47.4995 4.91712 48.348 2.08252C49.0102 3.90513 49.5793 5.45925 50.1381 7.01854C50.5054 8.05118 50.8882 9.05284 51.2038 10.0906C51.2267 10.2163 51.2745 10.3362 51.3445 10.4432C51.4144 10.5503 51.505 10.6423 51.611 10.714C51.717 10.7856 51.8362 10.8354 51.9618 10.8605C52.0873 10.8856 52.2166 10.8854 52.342 10.86C54.8667 10.7619 57.3915 10.7154 59.911 10.6483C60.1558 10.6289 60.3991 10.7006 60.5939 10.8496L57.1638 13.5087C56.1653 14.278 55.172 15.0576 54.1424 15.7908C54.0226 15.8557 53.9168 15.9435 53.8311 16.0493C53.7454 16.1551 53.6815 16.2767 53.6431 16.4072C53.6046 16.5377 53.5924 16.6745 53.607 16.8097C53.6217 16.9449 53.663 17.076 53.7285 17.1952C54.6598 19.7097 55.5393 22.25 56.2791 24.94L51.2038 21.5891C50.8158 21.2948 50.4381 20.985 50.0398 20.7114C48.7308 19.8026 48.7308 19.8078 47.5823 20.9334" fill="#D09F4A"/>
<path d="M47.582 20.9231C48.7306 19.7976 48.7306 19.7924 50.0395 20.7011C50.4379 20.9748 50.8155 21.2846 51.2036 21.5789C51.3346 25.8437 51.4657 30.1102 51.5968 34.3784L51.9227 48.7373C51.9537 50.1004 51.9951 51.4635 52.0106 52.8317C52.0106 53.694 51.5347 54.076 50.3654 54.0657C49.6049 54.0657 48.9323 53.9831 48.8961 52.8988C48.7202 47.6582 48.4874 42.4175 48.2701 37.1769C48.2391 36.516 48.1615 35.8603 48.1097 35.1994L47.5924 20.9231" fill="#076A46"/>
<path d="M60.9613 85.4476C65.0788 85.4373 69.0355 87.0415 71.9792 89.9146C74.923 92.7876 76.6181 96.6997 76.6995 100.808C76.9478 109.193 70.0876 116.453 61.339 116.644C57.1938 116.694 53.1985 115.098 50.232 112.208C47.2655 109.318 45.5708 105.371 45.5207 101.234C45.4706 97.0972 47.0692 93.1099 49.9649 90.1494C52.8606 87.1888 56.8161 85.4975 60.9613 85.4476Z" fill="#026742"/>
<path d="M66.0799 44.1163C63.8967 44.2403 61.7289 43.6671 59.525 43.3212C58.3872 43.1127 57.218 43.1479 56.0949 43.4244C55.6654 43.4998 55.2722 43.7131 54.9753 44.0318C54.6783 44.3505 54.4938 44.7573 54.4497 45.1903C54.3514 46.0113 54.8428 46.5432 55.4844 46.9821C57.0778 48.0974 58.93 48.5879 60.7718 49.0474C64.145 49.8766 67.5763 50.4497 71.0363 50.7617C72.9454 50.8821 74.8114 51.3806 76.5255 52.2281C78.5018 53.3124 78.7139 54.5155 77.2136 56.2298C75.7609 57.8452 73.9723 59.1246 71.9727 59.9784C68.0992 61.6895 63.9779 62.7753 59.763 63.1952C53.5857 63.8407 47.7188 62.6376 41.9761 60.5309C41.6239 60.3878 41.2605 60.2739 40.8896 60.1901C40.5326 60.123 40.098 60.1385 40.2688 59.6273C40.4395 59.1161 40.8172 59.4208 41.1328 59.524C42.4727 59.9733 43.8127 60.4225 45.163 60.8562C49.0902 62.2056 53.232 62.8252 57.3831 62.6841C63.4517 62.3794 69.2824 61.0886 74.456 57.7478C75.4605 57.1045 76.3374 56.2818 77.0428 55.321C77.7671 54.34 77.6637 53.772 76.6082 53.1007C75.205 52.2623 73.6319 51.7472 72.0037 51.593C66.8301 50.9372 61.6565 50.4519 56.7519 48.4381C55.9715 48.1469 55.2535 47.7106 54.6359 47.1524C54.302 46.8799 54.0462 46.524 53.8944 46.121C53.7427 45.718 53.7004 45.2821 53.7718 44.8575C53.8432 44.4329 54.0259 44.0347 54.3012 43.7032C54.5765 43.3718 54.9347 43.1188 55.3395 42.9701C56.8036 42.304 58.3609 42.4227 59.8716 42.6757C62.2825 43.0785 64.6675 43.5225 67.1147 43.4193C68.786 43.4203 70.4414 43.0958 71.9882 42.464C72.2934 42.3246 72.6763 42.1749 72.8212 42.495C73.0074 42.9133 72.5159 42.9236 72.2572 43.0578C70.3275 44.0389 68.2322 44.0544 66.0489 44.0905" fill="#090A0A"/>
<path d="M61.3048 74.0681C68.0564 74.3211 74.4665 72.8082 80.7007 70.3556L82.1803 69.8393C83.8204 69.1835 85.4035 68.4141 86.9711 67.6138C87.2091 67.4899 87.5557 67.1543 87.773 67.6138C87.9903 68.0734 87.4936 68.1302 87.2556 68.2334C81.6526 71.1873 75.6132 73.2301 69.3653 74.285C64.6573 75.0492 59.882 74.9511 55.1172 74.5896C50.4565 74.3215 45.826 73.6704 41.2726 72.643C38.9121 72.105 36.6107 71.3353 34.402 70.3453C33.9652 70.136 33.5418 69.8997 33.1345 69.6379C32.9689 69.5295 32.7775 69.3694 32.9223 69.1215C33.0672 68.8737 33.3155 68.9357 33.538 69.0699C36.4197 70.7635 39.6274 71.5174 42.8505 72.2712C43.4558 72.4158 44.0715 72.5088 44.682 72.6223C46.8685 73.0441 49.0754 73.3526 51.2938 73.5466C54.6164 74.01 57.9721 74.1931 61.3255 74.0939" fill="#090A0A"/>
<path d="M61.3075 74.0681C57.9541 74.1673 54.5984 73.9842 51.2759 73.5208C49.0574 73.3268 46.8505 73.0183 44.664 72.5965C44.5088 71.9872 43.919 72.1835 43.5361 72.0389C43.0305 71.9223 42.5525 71.7083 42.1289 71.4089C51.9588 73.1335 61.7886 73.8203 71.7168 72.1318C70.3997 72.5973 69.0307 72.9007 67.64 73.0354C65.7201 73.3691 63.7816 73.5846 61.8352 73.6809C61.5558 73.6809 61.3541 73.7635 61.3178 74.0681" fill="#F0EBE3"/>
<path d="M78.6428 70.3916C76.6768 71.3985 74.5608 71.8064 72.4344 72.1781C72.4086 72.0852 72.3879 71.9871 72.3672 71.8942L78.6376 70.3916" fill="#F0EBE3"/>
<path d="M82.1817 69.8238L80.7021 70.3401C80.2416 69.8754 79.8329 70.5518 79.3828 70.4021C79.6311 70.0716 79.6208 70.0251 80.7642 69.7102C81.2039 69.5914 81.7989 68.7859 82.1817 69.8134" fill="#F0EBE3"/>
<path d="M88.2863 74.4085C88.6432 71.9354 88.6795 69.4106 89.1917 66.9529C88.7415 67.2317 88.2914 67.5002 87.831 67.7583C87.862 68.063 87.4688 68.1043 87.2774 68.2075C81.6695 71.1723 75.6229 73.2239 69.3664 74.2846C65.0131 74.9111 60.6023 75.0375 56.2202 74.6615C49.3703 74.3931 44.2278 73.505 40.3993 72.4207C38.3409 71.9188 36.3335 71.2274 34.4031 70.3554C33.966 70.1428 33.5427 69.9031 33.1355 69.6377C33.001 69.55 32.851 69.4261 32.8769 69.2505C32.2219 68.847 31.6007 68.3911 31.0195 67.8874C31.3506 69.8494 31.4852 71.8476 31.7956 73.8148C32.1888 76.2879 32.4371 78.7818 32.7682 81.2653C33.1407 84.0224 33.5443 86.7796 33.9168 89.5264C34.3203 92.4591 34.7031 95.3918 35.0963 98.3038C35.4757 101.095 35.8551 103.889 36.2345 106.684C37.2175 114.243 38.1746 121.807 39.199 129.366C39.5405 131.885 39.6853 134.451 40.5079 136.894C40.9618 137.323 41.4459 137.72 41.9565 138.081C49.5825 142.692 57.7102 144.891 66.6554 143.219C72.1705 142.186 77.2044 140.183 81.276 136.186C81.3433 135.876 81.4416 135.577 81.4778 135.267C82.14 129.302 82.7971 123.337 83.4489 117.372C83.8473 113.804 84.2715 110.236 84.6803 106.668C84.7682 105.636 84.8199 104.603 84.9389 103.544C85.2597 100.71 85.627 97.865 85.9375 95.0459C86.2479 92.2268 86.5065 89.2269 86.8325 86.32C87.2878 82.3444 87.7172 78.3687 88.2811 74.4085M61.3369 116.623C57.1917 116.673 53.1964 115.077 50.2299 112.188C47.2634 109.298 45.5687 105.35 45.5186 101.213C45.4685 97.0765 47.0671 93.0892 49.9628 90.1286C52.8585 87.1681 56.814 85.4768 60.9592 85.4268C65.0767 85.4165 69.0334 87.0207 71.9771 89.8938C74.9209 92.7669 76.616 96.679 76.6974 100.787C76.9457 109.172 70.0855 116.432 61.3369 116.623Z" fill="#D09F4A"/>
</g>
</g>
<defs>
<clipPath id="clip0_860_14772">
<rect width="104" height="115" fill="white" transform="translate(8 2)"/>
</clipPath>
</defs>
</svg>