<?xml version="1.0" encoding="utf-8"?>
<!-- Generator: Adobe Illustrator 26.0.0, SVG Export Plug-In . SVG Version: 6.00 Build 0)  -->
<!DOCTYPE svg PUBLIC "-//W3C//DTD SVG 1.1//EN" "http://www.w3.org/Graphics/SVG/1.1/DTD/svg11.dtd" [
	<!ENTITY ns_extend "http://ns.adobe.com/Extensibility/1.0/">
	<!ENTITY ns_ai "http://ns.adobe.com/AdobeIllustrator/10.0/">
	<!ENTITY ns_graphs "http://ns.adobe.com/Graphs/1.0/">
	<!ENTITY ns_vars "http://ns.adobe.com/Variables/1.0/">
	<!ENTITY ns_imrep "http://ns.adobe.com/ImageReplacement/1.0/">
	<!ENTITY ns_sfw "http://ns.adobe.com/SaveForWeb/1.0/">
	<!ENTITY ns_custom "http://ns.adobe.com/GenericCustomNamespace/1.0/">
	<!ENTITY ns_adobe_xpath "http://ns.adobe.com/XPath/1.0/">
]>
<svg version="1.1" id="Capa_1" xmlns:x="&ns_extend;" xmlns:i="&ns_ai;" xmlns:graph="&ns_graphs;"
	 xmlns="http://www.w3.org/2000/svg" xmlns:xlink="http://www.w3.org/1999/xlink" x="0px" y="0px" viewBox="0 0 103 104.9"
	 style="enable-background:new 0 0 103 104.9;" xml:space="preserve">
<style type="text/css">
	.st0{fill:#FFFFFF;}
</style>
<metadata>
	<sfw  xmlns="&ns_sfw;">
		<slices></slices>
		<sliceSourceBounds  bottomLeftOrigin="true" height="77.3" width="79.1" x="12.9" y="17.4"></sliceSourceBounds>
	</sfw>
</metadata>
<path class="st0" d="M53.2,93.6h-0.4c-2.1,0.1-4.1-1.2-4.5-3.3c-0.1-0.7-0.1-1.5-0.1-2.3V64.9c0-1.3,0.2-0.9-1-1.4
	c-6.6-2.6-10.8-8-11.3-15.1c-0.1-1,0-2,0-3V42c0-0.3,0.1-0.6,0.1-0.9l0.2-3.2l0.7-5c1-6.3,2.7-11.8,9-15c1.8-0.9,3.8-1.4,5.8-1.5
	c5.1-0.5,10.8,2.9,13.4,7.2c1.4,2.3,2.1,5,2.6,7.7l0.9,6.2l0.3,7.7c0,1.9,0,3.8-0.4,5.7c-1.2,5.8-5.5,11.6-11.6,12.9
	c-0.4,0.1-0.3,0.2-0.3,0.7v23.4c0,0.8,0.1,1.6,0,2.4C56.5,91.9,54.9,93.3,53.2,93.6z M52,25.5c-4.3,0.5-4.8,3.8-5.5,7.2
	c-0.9,4.7-1.4,8.4-1.4,13.1c0,1-0.1,2.1,0.1,3.1c0.6,4,3.7,6.8,7.8,6.7c3.7-0.5,6.2-3.1,6.8-6.6c0.1-0.8,0.1-1.7,0.1-2.6l-0.1-4
	c0-0.7-0.1-1.4-0.1-2l-1.3-7.9C57.6,28.7,56.5,25.3,52,25.5z"/>
<path class="st0" d="M34.8,59.5h0.5c1.4,2.7,5,5.7,7.8,7.3c-0.6,0.3-1.3,0.5-2,0.7c-14,4.6-27.5-5-28.2-19.5V18.1h3.2
	c0.6,0,2.4-0.2,2.8,0.1l11.5,8.3c0.9,0.6,1.8,1.2,2.5,1.9c-0.2,0.7-0.3,1.5-0.4,2.2l-0.7,5.5c-0.1,0.9-0.1,2-0.2,2.9
	c-0.4-0.2-0.7-0.5-1-0.7l-6.4-4.8c-0.5-0.3-1.4-0.9-1.8-1.3l-0.1,13.6c0,0.7,0,1.5,0,2.2c0.5,5.8,4.3,10.7,10.4,11.4
	C33.4,59.5,34.1,59.5,34.8,59.5z"/>
<path class="st0" d="M68.6,61l1.2-1.5l2.1,0.1c5.1-0.2,9.2-4.2,10.3-8.9c0.4-1.8,0.4-3.7,0.4-5.5v-13c-0.1,0.2-1,0.7-1.2,0.9
	l-6.1,4.5c-0.6,0.4-1.3,0.9-1.8,1.5l-1.6-10.6l8.7-6.2c0.6-0.5,5.3-4,5.7-4.1h0.1c0.7-0.1,1.5,0,2.2,0H92v29.9
	c-0.2,4-1.3,8.1-3.6,11.5c-5.4,8.2-15.5,11.1-24.9,8c-0.5-0.2-0.9-0.3-1.4-0.5H62c0-0.1,0.2-0.2,0.3-0.3l1.9-1.4
	C65.9,64,67.3,62.5,68.6,61z"/>
</svg>
