<?xml version="1.0" encoding="utf-8"?>
<!-- Generator: Adobe Illustrator 26.0.0, SVG Export Plug-In . SVG Version: 6.00 Build 0)  -->
<!DOCTYPE svg PUBLIC "-//W3C//DTD SVG 1.1//EN" "http://www.w3.org/Graphics/SVG/1.1/DTD/svg11.dtd" [
	<!ENTITY ns_extend "http://ns.adobe.com/Extensibility/1.0/">
	<!ENTITY ns_ai "http://ns.adobe.com/AdobeIllustrator/10.0/">
	<!ENTITY ns_graphs "http://ns.adobe.com/Graphs/1.0/">
	<!ENTITY ns_vars "http://ns.adobe.com/Variables/1.0/">
	<!ENTITY ns_imrep "http://ns.adobe.com/ImageReplacement/1.0/">
	<!ENTITY ns_sfw "http://ns.adobe.com/SaveForWeb/1.0/">
	<!ENTITY ns_custom "http://ns.adobe.com/GenericCustomNamespace/1.0/">
	<!ENTITY ns_adobe_xpath "http://ns.adobe.com/XPath/1.0/">
]>
<svg version="1.1" id="Capa_1" xmlns:x="&ns_extend;" xmlns:i="&ns_ai;" xmlns:graph="&ns_graphs;"
	 xmlns="http://www.w3.org/2000/svg" xmlns:xlink="http://www.w3.org/1999/xlink" x="0px" y="0px" viewBox="0 0 277 61"
	 style="enable-background:new 0 0 277 61;" xml:space="preserve">
<style type="text/css">
	.st0{fill:#FFFFFF;}
</style>
<metadata>
	<sfw  xmlns="&ns_sfw;">
		<slices></slices>
		<sliceSourceBounds  bottomLeftOrigin="true" height="41.9" width="256.2" x="10.4" y="8"></sliceSourceBounds>
	</sfw>
</metadata>
<path class="st0" d="M19.6,45.8c-2,0-3.7-0.4-5-1.3c-1.3-0.8-2.3-2-3-3.5s-1.1-3.2-1.2-5.2l4.3-1.1c0.1,1.2,0.3,2.4,0.6,3.5
	s0.8,2,1.5,2.8c0.7,0.7,1.6,1.1,2.9,1.1s2.2-0.3,2.9-1c0.6-0.7,1-1.7,1-3c0-1.5-0.4-2.8-1.1-3.7s-1.6-1.9-2.7-2.8l-5.8-5
	c-1.1-1-2-2.1-2.5-3.2c-0.5-1.2-0.8-2.6-0.8-4.3c0-2.5,0.7-4.4,2.2-5.8s3.4-2.1,6-2.1c1.4,0,2.6,0.2,3.6,0.5c1,0.4,1.9,0.9,2.6,1.6
	c0.7,0.7,1.3,1.6,1.7,2.8s0.7,2.4,0.8,3.9l-4.1,1.1C23.4,20,23.2,19,23,18c-0.3-0.9-0.7-1.7-1.4-2.3c-0.6-0.6-1.6-0.9-2.8-0.9
	c-1.2,0-2.1,0.3-2.8,0.9c-0.7,0.6-1,1.6-1,2.8c0,1,0.2,1.9,0.5,2.6c0.4,0.7,0.9,1.4,1.7,2.1l5.9,5c1.3,1.1,2.5,2.5,3.5,4
	c1,1.6,1.5,3.4,1.5,5.5c0,1.7-0.4,3.1-1.1,4.3s-1.7,2.1-2.9,2.8C22.7,45.4,21.3,45.8,19.6,45.8z M35.1,45.7c-1,0-1.8-0.3-2.6-0.8
	c-0.7-0.5-1.3-1.2-1.8-2.1c-0.4-0.9-0.6-1.8-0.6-2.7c0-1.5,0.3-2.8,0.8-3.8s1.2-1.9,2.1-2.6s1.9-1.3,3.1-1.9c1.2-0.5,2.4-1,3.8-1.6
	v-1.7c0-1-0.1-1.8-0.2-2.4c-0.1-0.6-0.4-1.1-0.7-1.4c-0.4-0.3-0.9-0.5-1.6-0.5c-0.6,0-1.1,0.1-1.5,0.4s-0.7,0.7-0.8,1.2
	c-0.2,0.5-0.3,1.1-0.3,1.8v1.2l-4.5-0.2c0.1-2.7,0.7-4.7,1.9-5.9c1.2-1.3,3.1-1.9,5.6-1.9s4.2,0.7,5.2,2s1.5,3.2,1.5,5.7v11.1
	c0,0.8,0,1.5,0.1,2.2c0,0.7,0.1,1.4,0.2,2c0.1,0.6,0.1,1.2,0.2,1.7h-4.2c-0.1-0.4-0.2-1-0.3-1.7s-0.2-1.3-0.3-1.9
	c-0.3,1-0.8,1.8-1.7,2.7C37.6,45.3,36.5,45.7,35.1,45.7z M36.9,41.8c0.5,0,0.9-0.1,1.3-0.4c0.4-0.3,0.8-0.5,1.1-0.9
	c0.3-0.3,0.5-0.6,0.6-0.8v-6.9c-0.7,0.4-1.4,0.8-2,1.2s-1.2,0.8-1.7,1.2s-0.8,0.9-1.1,1.5c-0.3,0.5-0.4,1.2-0.4,1.9
	c0,1,0.2,1.7,0.6,2.3C35.6,41.6,36.2,41.8,36.9,41.8z M57.8,45.7c-0.9,0-1.7-0.2-2.4-0.7c-0.7-0.4-1.3-0.9-1.8-1.4v1.8H49v-34h4.6
	v11.7c0.5-0.6,1.2-1.1,2-1.6c0.8-0.4,1.7-0.7,2.7-0.7c1.3,0,2.3,0.3,3.1,1s1.3,1.5,1.7,2.5s0.6,2,0.7,3c0.1,1,0.2,1.9,0.2,2.6v5.9
	c0,1.7-0.2,3.3-0.5,4.8s-1,2.8-1.8,3.7C60.6,45.2,59.4,45.7,57.8,45.7z M56.8,42.2c0.8,0,1.4-0.3,1.7-0.9s0.6-1.4,0.6-2.3
	c0.1-1,0.1-2.1,0.1-3.2v-5.9c0-1-0.1-1.9-0.2-2.8c-0.1-0.9-0.4-1.5-0.7-2c-0.4-0.5-1-0.8-1.8-0.8c-0.6,0-1.2,0.1-1.7,0.4
	s-1,0.5-1.4,0.8v15.6c0.4,0.3,0.9,0.6,1.4,0.8C55.6,42.1,56.2,42.2,56.8,42.2z M74.9,45.7c-1.8,0-3.3-0.4-4.3-1.1
	c-1.1-0.7-1.8-1.8-2.3-3.1c-0.4-1.3-0.7-2.9-0.7-4.7v-7.1c0-1.8,0.2-3.4,0.7-4.7c0.4-1.3,1.2-2.4,2.3-3.1c1.1-0.7,2.5-1.1,4.3-1.1
	s3.3,0.4,4.3,1.1s1.8,1.8,2.2,3.1s0.7,2.9,0.7,4.7v7.1c0,1.8-0.2,3.4-0.7,4.7c-0.4,1.3-1.2,2.4-2.2,3.1
	C78.1,45.3,76.7,45.7,74.9,45.7z M74.9,42.4c0.9,0,1.5-0.3,1.9-0.8s0.6-1.2,0.6-2c0.1-0.8,0.1-1.7,0.1-2.6v-7.6c0-0.9,0-1.8-0.1-2.6
	s-0.3-1.5-0.6-2c-0.4-0.5-1-0.8-1.9-0.8s-1.5,0.3-1.9,0.8s-0.6,1.2-0.7,2s-0.1,1.7-0.1,2.6V37c0,0.9,0,1.8,0.1,2.6s0.3,1.5,0.7,2
	C73.4,42.1,74,42.4,74.9,42.4z M86.4,45.4V21.1H91v3.4c0.9-1.5,1.8-2.5,2.7-3s1.8-0.8,2.7-0.8c0.1,0,0.2,0,0.3,0s0.2,0,0.4,0v5
	c-0.3-0.1-0.7-0.3-1.2-0.4c-0.4-0.1-0.9-0.1-1.4-0.1c-0.7,0-1.4,0.2-2,0.5s-1.2,0.9-1.7,1.9v17.7L86.4,45.4L86.4,45.4z M107.9,45.8
	c-1.9,0-3.5-0.4-4.7-1c-1.3-0.7-2.2-1.7-2.8-3c-0.6-1.3-0.9-2.9-0.9-4.7V36h4.5c0,0.1,0,0.2,0,0.4c0,0.1,0,0.3,0,0.4
	c0,1,0.1,1.9,0.4,2.7c0.2,0.8,0.6,1.5,1.2,1.9c0.6,0.5,1.4,0.7,2.4,0.7c1.1,0,2-0.3,2.5-0.8c0.6-0.5,1-1.3,1.2-2.2
	c0.2-1,0.3-2,0.3-3.3c0-1.8-0.3-3.3-1-4.4s-1.9-1.8-3.5-1.9c-0.1,0-0.2,0-0.3,0s-0.2,0-0.3,0V25c0.1,0,0.2,0,0.3,0s0.2,0,0.3,0
	c1.6-0.1,2.8-0.5,3.5-1.3s1.1-2.1,1.1-3.9c0-1.5-0.3-2.8-0.8-3.7c-0.5-0.9-1.6-1.4-3.2-1.4s-2.6,0.5-3.1,1.5s-0.8,2.3-0.9,3.9
	c0,0.1,0,0.2,0,0.4s0,0.2,0,0.4h-4.7v-1.1c0-1.8,0.3-3.4,0.9-4.7s1.6-2.3,2.9-3s2.9-1,4.7-1c1.9,0,3.5,0.3,4.8,1s2.2,1.7,2.8,3
	s0.9,2.9,0.9,4.7c0,2-0.5,3.7-1.4,4.9s-2.1,2.1-3.6,2.5c1.1,0.3,2,0.8,2.7,1.6s1.3,1.7,1.7,2.9c0.4,1.2,0.6,2.5,0.6,4.1
	c0,2-0.3,3.8-0.9,5.3s-1.5,2.7-2.7,3.5C111.6,45.3,110,45.8,107.9,45.8z M130.7,45.4v-34h7c2.3,0,4.2,0.3,5.7,0.9
	c1.5,0.6,2.6,1.6,3.4,2.9c0.7,1.3,1.1,3.1,1.1,5.2c0,1.3-0.1,2.5-0.4,3.6c-0.3,1.1-0.7,2-1.4,2.7c-0.6,0.7-1.5,1.3-2.5,1.6l4.9,17
	h-4.7l-4.5-16h-3.8v16L130.7,45.4L130.7,45.4z M135.5,26h1.8c1.4,0,2.5-0.2,3.3-0.5c0.9-0.3,1.5-0.9,1.9-1.7s0.6-1.9,0.6-3.4
	c0-2-0.4-3.4-1.1-4.3c-0.7-0.9-2.2-1.3-4.4-1.3h-2.1V26z M159,45.7c-1.9,0-3.4-0.4-4.5-1.1s-1.8-1.8-2.2-3.3
	c-0.4-1.4-0.6-3.2-0.6-5.3v-5.5c0-2.2,0.2-3.9,0.6-5.4c0.4-1.4,1.2-2.5,2.3-3.2s2.6-1.1,4.4-1.1c2.1,0,3.6,0.4,4.6,1.3
	c1,0.8,1.6,2.1,2,3.6c0.3,1.6,0.5,3.5,0.5,5.7v2h-9.8v4.9c0,1,0.1,1.8,0.3,2.4s0.5,1.1,0.9,1.4s1,0.4,1.6,0.4c0.7,0,1.2-0.2,1.6-0.5
	c0.4-0.3,0.6-0.8,0.7-1.4c0.1-0.6,0.2-1.3,0.2-2.1V37h4.5v0.9c0,2.4-0.5,4.4-1.6,5.8C163.4,45,161.6,45.7,159,45.7z M156.3,30.9h5.3
	v-2.2c0-1-0.1-1.9-0.2-2.5c-0.1-0.7-0.4-1.2-0.7-1.6c-0.4-0.3-0.9-0.5-1.7-0.5c-0.7,0-1.3,0.2-1.7,0.5s-0.7,0.9-0.8,1.7
	s-0.2,1.9-0.2,3.3L156.3,30.9L156.3,30.9z M176.8,53c-1.5,0-2.9-0.2-4.1-0.5s-2.2-0.8-2.9-1.5s-1.1-1.6-1.1-2.6
	c0-0.8,0.2-1.6,0.6-2.2s0.9-1.2,1.5-1.6s1.3-0.8,2-1l2.1,0.3c-0.4,0.3-0.7,0.7-1.1,1c-0.3,0.3-0.6,0.7-0.9,1.1
	c-0.2,0.4-0.3,0.8-0.3,1.2c0,0.7,0.3,1.3,1,1.6c0.6,0.4,1.8,0.5,3.5,0.5c1.6,0,2.8-0.2,3.6-0.6c0.8-0.4,1.2-1,1.2-1.8
	c0-0.5-0.1-0.9-0.3-1.2s-0.5-0.6-1-0.8s-1.2-0.3-2.1-0.4l-5.4-0.7c-1.1-0.1-1.9-0.5-2.5-1c-0.5-0.6-0.8-1.2-0.8-1.8
	c0-1,0.3-1.9,0.9-2.6s1.4-1.5,2.4-2.4l1.5,1.2c-0.2,0.2-0.4,0.5-0.6,0.9c-0.3,0.4-0.4,0.8-0.4,1.2c0,0.3,0.2,0.6,0.5,0.8
	s0.9,0.3,1.6,0.4l4.2,0.4c1.9,0.2,3.4,0.7,4.3,1.7s1.4,2.4,1.4,4.2c0,1.3-0.3,2.5-1,3.4c-0.6,0.9-1.6,1.6-2.9,2.1
	C180.4,52.7,178.8,53,176.8,53z M177,37.9c-1.7,0-3.1-0.4-4.1-1.1c-1.1-0.7-1.8-1.7-2.3-3s-0.8-2.8-0.8-4.4c0-1.9,0.3-3.4,0.8-4.7
	s1.4-2.2,2.4-2.9c1.1-0.7,2.4-1,4-1s3,0.4,4,1.2s1.8,1.9,2.3,3.2s0.7,2.8,0.7,4.4c0,1.7-0.2,3.1-0.7,4.4c-0.4,1.3-1.2,2.3-2.2,3
	C180.1,37.6,178.7,37.9,177,37.9z M177,34.7c0.6,0,1.1-0.1,1.5-0.4c0.4-0.2,0.7-0.6,0.8-1c0.2-0.4,0.3-1,0.4-1.7
	c0.1-0.7,0.1-1.4,0.1-2.2s0-1.6-0.1-2.3s-0.2-1.2-0.4-1.7s-0.5-0.8-0.9-1.1s-0.9-0.4-1.5-0.4s-1.1,0.1-1.5,0.4s-0.7,0.6-0.9,1
	c-0.2,0.5-0.4,1-0.4,1.7c-0.1,0.7-0.1,1.4-0.1,2.3c0,0.8,0,1.5,0.1,2.1s0.2,1.2,0.4,1.7s0.5,0.8,0.9,1.1S176.3,34.7,177,34.7z
	 M183.1,25.2l-1.1-1.7c0.2-0.4,0.7-0.9,1.5-1.5s1.7-1.1,2.6-1.5l1.2,2.9c-0.4,0.1-0.9,0.2-1.6,0.5c-0.7,0.2-1.3,0.5-1.8,0.7
	C183.4,24.9,183.1,25.1,183.1,25.2z M189.4,45.4V21.1h4.6v24.3H189.4z M189.4,17.5v-4.7h4.6v4.7H189.4z M205.8,45.7
	c-1.8,0-3.3-0.4-4.3-1.1c-1.1-0.7-1.8-1.8-2.3-3.1c-0.4-1.3-0.7-2.9-0.7-4.7v-7.1c0-1.8,0.2-3.4,0.7-4.7c0.4-1.3,1.2-2.4,2.3-3.1
	s2.5-1.1,4.3-1.1s3.3,0.4,4.3,1.1s1.8,1.8,2.2,3.1c0.4,1.3,0.7,2.9,0.7,4.7v7.1c0,1.8-0.2,3.4-0.7,4.7c-0.4,1.3-1.2,2.4-2.2,3.1
	C209,45.3,207.6,45.7,205.8,45.7z M205.8,42.4c0.9,0,1.5-0.3,1.9-0.8s0.6-1.2,0.6-2c0.1-0.8,0.1-1.7,0.1-2.6v-7.6
	c0-0.9,0-1.8-0.1-2.6s-0.3-1.5-0.6-2c-0.4-0.5-1-0.8-1.9-0.8s-1.5,0.3-1.9,0.8s-0.6,1.2-0.7,2s-0.1,1.7-0.1,2.6V37
	c0,0.9,0,1.8,0.1,2.6s0.3,1.5,0.7,2S204.9,42.4,205.8,42.4z M217.2,45.4V21.1h4.6v2.4c0.8-0.8,1.7-1.4,2.7-1.9s2.1-0.8,3.3-0.8
	c1,0,1.8,0.3,2.3,0.8s0.9,1.1,1.1,1.9c0.2,0.8,0.3,1.5,0.3,2.3v19.6h-4.6V27c0-0.9-0.1-1.5-0.4-2s-0.8-0.7-1.6-0.7
	c-0.5,0-1.1,0.1-1.6,0.4c-0.6,0.3-1.1,0.7-1.6,1.1v19.6H217.2z M242.9,45.7c-1.9,0-3.4-0.4-4.5-1.1s-1.8-1.8-2.2-3.3
	c-0.4-1.4-0.6-3.2-0.6-5.3v-5.5c0-2.2,0.2-3.9,0.6-5.4c0.4-1.4,1.2-2.5,2.3-3.2s2.6-1.1,4.4-1.1c2.1,0,3.6,0.4,4.6,1.3
	c1,0.8,1.6,2.1,2,3.6c0.3,1.6,0.5,3.5,0.5,5.7v2h-9.8v4.9c0,1,0.1,1.8,0.3,2.4c0.2,0.6,0.5,1.1,0.9,1.4s1,0.4,1.6,0.4
	c0.7,0,1.2-0.2,1.6-0.5s0.6-0.8,0.7-1.4s0.2-1.3,0.2-2.1V37h4.5v0.9c0,2.4-0.5,4.4-1.6,5.8C247.2,45,245.4,45.7,242.9,45.7z
	 M240.1,30.9h5.3v-2.2c0-1-0.1-1.9-0.2-2.5c-0.1-0.7-0.4-1.2-0.7-1.6c-0.4-0.3-0.9-0.5-1.7-0.5c-0.7,0-1.3,0.2-1.7,0.5
	s-0.7,0.9-0.8,1.7c-0.1,0.8-0.2,1.9-0.2,3.3L240.1,30.9L240.1,30.9z M259.8,45.7c-2,0-3.7-0.6-4.9-1.9c-1.2-1.2-1.9-2.9-2.1-4.9
	l3.8-1.1c0.2,1.5,0.6,2.7,1.2,3.5c0.5,0.8,1.3,1.2,2.4,1.2c0.8,0,1.5-0.2,1.9-0.7s0.6-1.1,0.6-1.9c0-0.7-0.2-1.3-0.5-1.9
	c-0.3-0.6-0.8-1.1-1.5-1.7l-4.2-3.6c-0.9-0.7-1.6-1.5-2.2-2.4s-0.9-2.1-0.9-3.5c0-1.3,0.3-2.4,0.8-3.3s1.3-1.6,2.2-2
	c1-0.5,2.1-0.7,3.4-0.7c2.1,0,3.6,0.6,4.7,1.9s1.7,2.8,1.9,4.5l-3.3,1.1c-0.1-0.8-0.3-1.6-0.5-2.2s-0.6-1.1-1-1.5
	c-0.4-0.3-1-0.5-1.7-0.5s-1.3,0.2-1.8,0.7c-0.4,0.5-0.7,1.1-0.7,1.7c0,0.4,0.1,0.8,0.3,1.2c0.2,0.4,0.5,0.8,1,1.2l4.4,3.9
	c0.6,0.5,1.2,1.1,1.7,1.7c0.5,0.6,1,1.3,1.3,2.1s0.5,1.7,0.5,2.7c0,1.4-0.3,2.5-0.9,3.4s-1.4,1.6-2.4,2.1
	C262.4,45.5,261.2,45.7,259.8,45.7z"/>
</svg>
